<svg width="20" height="20" viewBox="0 0 20 20" fill="none" xmlns="http://www.w3.org/2000/svg">
<path d="M13.65 2.88C17.58 4.89 19.13 9.72 17.12 13.65C15.11 17.58 10.29 19.13 6.34998 17.12C4.55006 16.1982 3.16955 14.6246 2.48998 12.72L4.12998 11.69C4.35962 12.4937 4.75135 13.2419 5.28105 13.8886C5.81074 14.5352 6.46719 15.0666 7.20998 15.45C10.22 16.99 13.9 15.8 15.44 12.79C15.8153 12.0748 16.0452 11.2923 16.1164 10.4877C16.1876 9.68308 16.0986 8.87236 15.8547 8.10234C15.6107 7.33233 15.2166 6.61829 14.6951 6.00147C14.1736 5.38465 13.535 4.87728 12.8163 4.50868C12.0976 4.14007 11.3129 3.91753 10.5077 3.85391C9.70249 3.79029 8.89264 3.88686 8.12496 4.13803C7.35727 4.38921 6.64696 4.79001 6.03507 5.31728C5.42317 5.84455 4.92182 6.48785 4.55998 7.21L6.43998 8.18L1.48998 11.26L1.09998 5.44L2.87998 6.35C4.89998 2.4 9.74998 0.889999 13.65 2.88ZM9.28998 10.71C9.19716 10.6167 9.12375 10.5059 9.07397 10.384C9.0242 10.2621 8.99905 10.1316 8.99998 10C8.99998 9.93 9.02998 9.88 9.03998 9.81H9.02998L9.99998 5L10.97 9.81L14 13L9.49998 10.88L9.51998 10.86C9.43998 10.82 9.35997 10.77 9.28998 10.71Z" fill="black"/>
</svg>
