<svg width="20" height="20" viewBox="0 0 20 20" fill="none" xmlns="http://www.w3.org/2000/svg">
<path d="M14.48 11.06L7.41 3.99L8.91 2.49C9.41 1.93 11.21 2.02 12.42 2.81C13.63 3.61 13.85 4.09 15.33 4.91C16.51 5.55 17.78 6.17 19.78 5.76L14.48 11.06ZM13.77 11.77L6.7 4.7L4.93 6.47C4.83729 6.56252 4.76375 6.67241 4.71357 6.79338C4.66338 6.91435 4.63755 7.04403 4.63755 7.175C4.63755 7.30597 4.66338 7.43565 4.71357 7.55663C4.76375 7.6776 4.83729 7.78749 4.93 7.88L5.99 8.94C6.38 9.33 6.38 9.97 5.99 10.36C5.39 10.96 4.56 11.47 3.78 12.05C3.43 12.31 3.08 12.58 2.77 12.89C1.43 14.23 0.399998 16.08 1.4 17.07C2.39 18.07 4.24 17.04 5.58 15.71C5.89 15.4 6.16 15.05 6.43 14.69C7 13.91 7.51 13.08 8.12 12.48C8.21251 12.3873 8.3224 12.3138 8.44337 12.2636C8.56435 12.2134 8.69403 12.1876 8.825 12.1876C8.95597 12.1876 9.08565 12.2134 9.20662 12.2636C9.3276 12.3138 9.43748 12.3873 9.53 12.48L10.59 13.54C10.98 13.93 11.61 13.93 12 13.54L13.77 11.77Z" fill="black"/>
</svg>
