<svg width="20" height="20" viewBox="0 0 20 20" fill="none" xmlns="http://www.w3.org/2000/svg">
<path d="M11 7H9.49C8.86 7 8.24 7.3 7.9 7.7L7 5H4.13L1.74 12H3.43L4.17 10H7V14H2C0.9 14 0 13.1 0 12V5C0 3.9 0.9 3 2 3H9C10.1 3 11 3.9 11 5V7ZM6.51 9H4.49L5.49 6.07L6.51 9ZM10 8H17C18.1 8 19 8.9 19 10V17C19 18.1 18.1 19 17 19H10C8.9 19 8 18.1 8 17V10C8 8.9 8.9 8 10 8ZM17.25 13V11.92H14.08V9.75H12.92V11.92H9.75V13H11.03C11.14 13.85 11.59 14.85 12.31 15.62C11.44 15.98 10.42 16.24 10 16.24C9.99 16.26 10.22 17.21 10.2 17.7C11.04 17.7 12.41 17.2 13.48 16.55C14.57 17.2 15.96 17.7 16.82 17.7C16.8 17.21 17.02 16.26 17.02 16.24C16.59 16.24 15.53 15.97 14.64 15.61C15.34 14.84 15.78 13.84 15.89 13H17.25ZM13.44 14.93C12.94 14.47 12.59 13.8 12.43 13H14.52C14.35 13.8 14.01 14.47 13.52 14.93L13.48 14.96C13.48 14.96 13.45 14.94 13.44 14.93Z" fill="black"/>
</svg>
