<svg width="20" height="20" viewBox="0 0 20 20" fill="none" xmlns="http://www.w3.org/2000/svg">
<path d="M18 16H2V4H18V16ZM7.05 8.53C7.18 8.46 7.29 8.38 7.38 8.29C7.47 8.19 7.55 8.08 7.62 7.95C7.69 7.81 7.75 7.69 7.79 7.58C7.83 7.47 7.86 7.36 7.89 7.24L7.95 7C7.95 6.96 7.96 6.93 7.96 6.91C8.01 6.59 7.99 6.3 7.92 6.01C7.84 5.73 7.69 5.49 7.46 5.29C7.23 5.1 6.95 5 6.6 5C6.4 5 6.21 5.04 6.04 5.11C5.87 5.19 5.73 5.29 5.63 5.41C5.52 5.54 5.43 5.68 5.36 5.85C5.29 6.01 5.25 6.18 5.24 6.36C5.23 6.54 5.24 6.72 5.25 6.91L5.27 7C5.28 7.06 5.3 7.15 5.33 7.25C5.36 7.35 5.39 7.46 5.43 7.58C5.47 7.7 5.53 7.83 5.6 7.95C5.68 8.07 5.76 8.18 5.85 8.28C5.94 8.38 6.05 8.47 6.19 8.53C6.32 8.59 6.47 8.62 6.62 8.62C6.77 8.62 6.92 8.59 7.05 8.53ZM17 9V5H12V9H17ZM6.62 9.83L5.24 8.95C4.83 8.95 4.45 9.06 4.1 9.27C3.75 9.49 3.48 9.77 3.29 10.12C3.1 10.46 3 10.82 3 11.19V12.44L3.2 12.49C3.33 12.53 3.51 12.58 3.75 12.63C3.99 12.69 4.26 12.75 4.55 12.8C4.84 12.86 5.17 12.9 5.55 12.94C5.92 12.98 6.28 13 6.62 13C6.96 13 7.31 12.98 7.69 12.94C8.07 12.9 8.39 12.85 8.67 12.8C8.94 12.75 9.21 12.7 9.49 12.63C9.76 12.57 9.94 12.52 10.03 12.5C10.12 12.47 10.19 12.45 10.24 12.44V11.19C10.24 10.83 10.14 10.47 9.93 10.12C9.72 9.77 9.44 9.48 9.09 9.26C8.74 9.04 8.37 8.93 7.98 8.93L6.62 9.83ZM17 11V10H12V11H17ZM17 13V12H12V13H17ZM17 15V14H3V15H17Z" fill="black"/>
</svg>
