<svg width="20" height="20" viewBox="0 0 20 20" fill="none" xmlns="http://www.w3.org/2000/svg">
<path d="M3.76 17.01H16.24C17.3806 15.5894 18.0016 13.8218 18 12C18 7.59 14.42 4 10 4C5.58 4 2 7.59 2 12C2 13.9 2.66 15.63 3.76 17.01ZM9 6C9 5.45 9.45 5 10 5C10.55 5 11 5.45 11 6C11 6.56 10.55 7 10 7C9.45 7 9 6.56 9 6ZM4 8C4 7.45 4.45 7 5 7C5.55 7 6 7.45 6 8C6 8.56 5.55 9 5 9C4.45 9 4 8.56 4 8ZM8.52 11.4C9.36 10.57 15.03 7.9 15.03 7.9C15.03 7.9 12.37 13.58 11.54 14.41C10.7 15.25 9.36 15.25 8.52 14.41C8.12124 14.0106 7.89727 13.4694 7.89727 12.905C7.89727 12.3406 8.12124 11.7994 8.52 11.4ZM3 13C3 12.45 3.45 12 4 12C4.55 12 5 12.45 5 13C5 13.56 4.55 14 4 14C3.45 14 3 13.56 3 13ZM9 13C9 12.45 9.45 12 10 12C10.55 12 11 12.45 11 13C11 13.56 10.55 14 10 14C9.45 14 9 13.56 9 13ZM15 13C15 12.45 15.45 12 16 12C16.55 12 17 12.45 17 13C17 13.56 16.55 14 16 14C15.45 14 15 13.56 15 13Z" fill="black"/>
</svg>
