<svg width="20" height="20" viewBox="0 0 20 20" fill="none" xmlns="http://www.w3.org/2000/svg">
<path d="M13.8 9.3C13 9.2 12.3 8.9 11.8 8.3C11.3 7.7 10.9 7 10.8 6.3C10.4 6.2 10.1 6 9.79998 5.7C9.39998 5.2 9.19998 4.7 9.09998 4.2L8.19998 5.1L7.39998 4.4C6.79998 3.7 5.69998 3.7 4.99998 4.4L2.49998 6.9C1.79998 7.6 1.79998 8.7 2.49998 9.4L3.19998 10.2L2.59998 10.8C1.89998 11.5 1.89998 12.6 2.59998 13.3L6.89998 17.6C7.59998 18.3 8.69998 18.3 9.29998 17.6L15.7 11.1C15.2 11 14.7 10.8 14.3 10.4C14.2 10 14 9.6 13.8 9.3ZM3.59998 7.6L5.59998 5.6C5.89998 5.3 6.39998 5.3 6.59998 5.6L7.09998 6.1L4.19998 9.2L3.59998 8.6C3.39998 8.3 3.39998 7.9 3.59998 7.6ZM4.19998 12.3C3.89998 12 3.89998 11.6 4.19998 11.4L8.49998 7C8.79998 6.7 9.19998 6.7 9.39998 7C9.69998 7.3 9.69998 7.7 9.39998 7.9L5.09998 12.2C4.79998 12.5 4.39998 12.5 4.19998 12.3ZM5.99998 14.1C5.69998 13.8 5.69998 13.4 5.99998 13.2L10.3 8.9C10.6 8.6 11 8.6 11.2 8.9C11.5 9.2 11.5 9.6 11.2 9.8L6.89998 14.1C6.69998 14.4 6.29998 14.4 5.99998 14.1ZM13.1 11.6L8.79998 16C8.49998 16.3 8.09998 16.3 7.89998 16C7.59998 15.7 7.59998 15.3 7.89998 15.1L12.2 10.8C12.5 10.5 12.9 10.5 13.1 10.8C13.3 10.9 13.3 11.4 13.1 11.6ZM17.5 7.2C17.3 7 17 6.8 16.8 6.8C17.2 5.8 17 4.6 16.2 3.9C15.4 3.1 14.3 2.9 13.3 3.3C13.2 3 13 2.7 12.8 2.5C12.1 1.8 11 1.8 10.4 2.5C9.69998 3.2 9.69998 4.3 10.4 5C10.7 5.3 11.2 5.5 11.6 5.5C11.5 6.3 11.8 7.1 12.4 7.7C13 8.3 13.8 8.5 14.6 8.5C14.6 9 14.8 9.4 15.1 9.7C15.8 10.4 16.9 10.4 17.5 9.7C18.2 9 18.2 7.9 17.5 7.2Z" fill="black"/>
</svg>
