<svg width="20" height="20" viewBox="0 0 20 20" fill="none" xmlns="http://www.w3.org/2000/svg">
<path d="M17.54 10.29C18.1019 10.8545 18.4174 11.6185 18.4174 12.415C18.4174 13.2115 18.1019 13.9755 17.54 14.54C16.9755 15.1019 16.2115 15.4174 15.415 15.4174C14.6185 15.4174 13.8544 15.1019 13.29 14.54L12.95 14.02C12.95 17.68 10.95 18.4 9.99998 19C9.17998 18.4 7.04998 17.72 7.04998 14.02L6.70998 14.54C6.14552 15.1019 5.38146 15.4174 4.58498 15.4174C3.7885 15.4174 3.02444 15.1019 2.45998 14.54C1.89805 13.9755 1.58258 13.2115 1.58258 12.415C1.58258 11.6185 1.89805 10.8545 2.45998 10.29C2.45998 10.29 3.47998 9.62 4.55998 8.99C3.67703 7.8016 3.20017 6.3605 3.19998 4.88C3.19998 4.54 3.22998 4.21 3.27998 3.88C3.53168 5.61869 4.43196 7.19776 5.79998 8.3C6.46998 7.95 7.64998 7.47 8.16998 7.38H7.99998C6.89998 7.38 5.99998 6.48 5.99998 5.38C5.99998 4.28 6.89998 3.38 7.99998 3.38V2.88C7.99998 2.6 8.21998 2.38 8.49998 2.38C8.77998 2.38 8.99998 2.6 8.99998 2.88V3.38H11V2.88C11 2.6 11.22 2.38 11.5 2.38C11.78 2.38 12 2.6 12 2.88V3.38C13.1 3.38 14 4.28 14 5.38C14 6.48 13.1 7.38 12 7.38H11.83C12.34 7.47 13.61 7.99 14.21 8.3C15.578 7.19776 16.4783 5.61869 16.73 3.88C16.78 4.21 16.81 4.54 16.81 4.88C16.81 6.42 16.3 7.84 15.45 8.99C16.53 9.62 17.54 10.29 17.54 10.29ZM8.49998 6.38C8.99998 6.38 9.49998 5.93 9.49998 5.38C9.49998 4.83 9.04998 4.38 8.49998 4.38C7.94998 4.38 7.49998 4.83 7.49998 5.38C7.49998 5.93 7.94998 6.38 8.49998 6.38ZM11.5 4.38C10.95 4.38 10.5 4.83 10.5 5.38C10.5 5.93 10.95 6.38 11.5 6.38C12.05 6.38 12.5 5.93 12.5 5.38C12.5 4.83 12.05 4.38 11.5 4.38ZM9.19998 10.11C9.07998 10.22 9.00998 10.37 9.00998 10.54C9.0199 10.6638 9.07558 10.7796 9.16617 10.8646C9.25675 10.9496 9.37575 10.9979 9.49998 11H10.5C10.6242 10.9979 10.7432 10.9496 10.8338 10.8646C10.9244 10.7796 10.9801 10.6638 10.99 10.54C10.99 10.39 10.92 10.25 10.8 10.11C10.7148 10.0414 10.6093 10.0027 10.5 10H9.49998C9.37998 10 9.27998 10.05 9.19998 10.11ZM12 12.5C12 12.38 11.94 12.22 11.81 12.12C11.7234 12.0457 11.614 12.0033 11.5 12H8.49998C8.37998 12 8.27998 12.05 8.18998 12.12C8.07998 12.22 7.99998 12.37 7.99998 12.5C7.99998 12.78 8.21998 13 8.49998 13H11.5C11.78 13 12 12.78 12 12.5ZM8.49998 15H11.5C11.78 15 12 14.78 12 14.5C12 14.22 11.78 14 11.5 14H8.49998C8.21998 14 7.99998 14.22 7.99998 14.5C7.99998 14.78 8.21998 15 8.49998 15ZM9.49998 17H10.5C10.78 17 11 16.78 11 16.5C11 16.22 10.78 16 10.5 16H9.49998C9.21998 16 8.99998 16.22 8.99998 16.5C8.99998 16.78 9.21998 17 9.49998 17Z" fill="black"/>
</svg>
