<svg width="20" height="20" viewBox="0 0 20 20" fill="none" xmlns="http://www.w3.org/2000/svg">
<path d="M8 1V8H10V6C10 4.48 11.45 3 13 3V3.86C13.55 3.34 14.26 3 15 3V6H16C17.1 6 18 6.9 18 8C18 9.1 17.1 10 16 10H15V16C15 16.55 14.55 17 14 17C13.45 17 13 16.55 13 16V13.82C12.69 13.93 12.35 14 12 14V16C12 16.55 11.55 17 11 17C10.45 17 10 16.55 10 16V14H8V16C8 16.55 7.55 17 7 17C6.45 17 6 16.55 6 16V14C5.65 14 5.31 13.93 5 13.82V16C5 16.55 4.55 17 4 17C3.45 17 3 16.55 3 16V12H2V11C2 9.34 3.34 8 5 8H7V1H8ZM13 8C13.55 8 14 7.55 14 7C14 6.45 13.55 6 13 6C12.45 6 12 6.45 12 7C12 7.55 12.45 8 13 8Z" fill="black"/>
</svg>
