<svg width="20" height="20" viewBox="0 0 20 20" fill="none" xmlns="http://www.w3.org/2000/svg">
<path d="M12.06 5.99999L11.85 5.79999C11.33 5.25999 11.42 5.00999 11.93 4.49999L14.65 1.74999C15.46 0.929987 15.61 0.539987 16.38 1.26999L16.59 1.46999L12.06 5.99999ZM12.59 6.44999L16.99 2.04999C17.69 2.98999 19.33 5.51999 18.52 7.38999C17.79 9.05999 17.43 9.13999 16.52 10.39C14.67 12.5 12.34 14.76 10.52 16.46C9.25998 17.37 9.20997 17.79 7.51997 18.46C5.71997 19.17 3.11998 17.57 2.13997 16.9L6.53997 12.5L7.71997 14.12C8.05997 14.58 8.91998 14.06 9.51998 13.46C10.56 12.41 12.7 10.28 13.52 9.38999C14.11 8.79999 14.64 7.93999 14.18 7.58999L12.59 6.44999ZM1.56997 16.5L1.35997 16.29C0.679975 15.55 1.06997 15.39 1.87997 14.59L4.61997 11.87C5.12997 11.38 5.36997 11.27 5.88997 11.76L6.08997 11.97L1.56997 16.5Z" fill="black"/>
</svg>
