<svg width="20" height="20" viewBox="0 0 20 20" fill="none" xmlns="http://www.w3.org/2000/svg">
<path d="M18 10.1C18 9.10002 17.2 8.30002 16.2 8.40002C15.8 8.40002 15.3 8.60002 15 8.90002C13.6 8.00002 12 7.40002 10.3 7.40002L11.1 3.60002L13.7 4.20002C13.7 4.90002 14.3 5.40002 15 5.40002C15.7 5.40002 16.2 4.80002 16.2 4.10002C16.2 3.40002 15.6 2.90002 14.9 2.90002C14.4 2.90002 14 3.20002 13.8 3.60002L11 2.90002H10.8C10.7 2.90002 10.7 3.00002 10.7 3.10002L9.69998 7.40002C7.99998 7.40002 6.39998 7.90002 4.99998 8.90002C4.29998 8.20002 3.19998 8.20002 2.49998 8.90002C1.79998 9.60002 1.79998 10.7 2.49998 11.4C2.59998 11.5 2.79998 11.7 2.99998 11.7V12.2C2.99998 14.9 6.09998 17.1 9.99998 17.1C13.9 17.1 17 14.9 17 12.2V11.7C17.6 11.4 18 10.8 18 10.1ZM5.99998 11.4C5.99998 10.7 6.59998 10.2 7.19998 10.2C7.89998 10.2 8.39998 10.8 8.39998 11.4C8.39998 12 7.79998 12.6 7.19998 12.6C6.49998 12.6 5.99998 12.1 5.99998 11.4ZM13 14.7C12.1 15.3 11.1 15.7 9.99998 15.6C8.89998 15.6 7.89998 15.3 6.99998 14.7C6.89998 14.6 6.89998 14.4 6.99998 14.2C7.09998 14.1 7.29998 14.1 7.39998 14.2C8.09998 14.7 8.99998 15 9.89998 14.9C10.8 15 11.7 14.7 12.4 14.2C12.5 14.1 12.7 14.1 12.9 14.2C13.1 14.3 13.1 14.5 13 14.7ZM12.7 12.6C12 12.6 11.5 12 11.5 11.4C11.5 10.8 12.1 10.2 12.7 10.2C13.4 10.2 13.9 10.8 13.9 11.4C14 12.1 13.4 12.6 12.7 12.6Z" fill="black"/>
</svg>
