<svg width="20" height="20" viewBox="0 0 20 20" fill="none" xmlns="http://www.w3.org/2000/svg">
<path d="M17.7 5.29996C17.5 4.59996 17 4.09996 16.3 3.89996C14.2 3.69996 12.1 3.49996 9.99999 3.59996C7.89999 3.59996 5.79999 3.69996 3.69999 3.89996C3.09999 4.09996 2.49999 4.69996 2.29999 5.29996C1.90122 8.42061 1.90122 11.5793 2.29999 14.7C2.49999 15.4 2.99999 15.9 3.69999 16.1C5.79999 16.3 7.89999 16.5 9.99999 16.4C12.1 16.4 14.2 16.3 16.3 16.1C17 15.9 17.5 15.4 17.7 14.7C18.0988 11.5793 18.0988 8.42061 17.7 5.29996ZM7.99999 13V6.99996L13.2 9.99996L7.99999 13Z" fill="black"/>
</svg>
