<svg width="20" height="20" viewBox="0 0 20 20" fill="none" xmlns="http://www.w3.org/2000/svg">
<path d="M7 4.5C6.7 4.5 6.5 4.8 6.5 5V7.5H5.5V5C5.5 4.7 5.3 4.5 5 4.5C4.7 4.5 4.5 4.8 4.5 5V7.5H3.5V5C3.5 4.7 3.3 4.5 3 4.5C2.7 4.5 2.5 4.8 2.5 5V8.3C2.5 9.2 3.2 9.9 4 10V17C4 17.6 4.4 18 5 18C5.6 18 6 17.6 6 17V10C6.8 9.9 7.5 9.2 7.5 8.3V5C7.5 4.8 7.3 4.5 7 4.5ZM9 5V11H10V17C10 17.6 10.4 18 11 18C11.6 18 12 17.6 12 17V2C10.3 2 9 3.3 9 5ZM16 4C14.6 4 13.5 5.5 13.5 7.3C13.4 8.5 14 9.6 15 10.3V17C15 17.6 15.4 18 16 18C16.6 18 17 17.6 17 17V10.3C18 9.6 18.6 8.5 18.5 7.3C18.5 5.5 17.4 4 16 4Z" fill="black"/>
</svg>
