<svg width="20" height="20" viewBox="0 0 20 20" fill="none" xmlns="http://www.w3.org/2000/svg">
<path d="M18 16V4C18 3.45 17.55 3 17 3H4C3.45 3 3 3.45 3 4V16C3 16.55 3.45 17 4 17H17C17.55 17 18 16.55 18 16ZM8 11H9C9.55 11 10 11.45 10 12C10 12.55 9.55 13 9 13H8V14.5C8 14.78 7.78 15 7.5 15C7.22 15 7 14.78 7 14.5V13H6C5.45 13 5 12.55 5 12C5 11.45 5.45 11 6 11H7V5.5C7 5.22 7.22 5 7.5 5C7.78 5 8 5.22 8 5.5V11ZM13 9H12C11.45 9 11 8.55 11 8C11 7.45 11.45 7 12 7H13V5.5C13 5.22 13.22 5 13.5 5C13.78 5 14 5.22 14 5.5V7H15C15.55 7 16 7.45 16 8C16 8.55 15.55 9 15 9H14V14.5C14 14.78 13.78 15 13.5 15C13.22 15 13 14.78 13 14.5V9Z" fill="black"/>
</svg>
