<svg width="20" height="20" viewBox="0 0 20 20" fill="none" xmlns="http://www.w3.org/2000/svg">
<path d="M18.15 5.93999C18.61 7.55999 18.53 9.15999 18.13 10.42C17.71 11.7 16.87 12.6 15.83 12.9C15.67 12.96 15.57 12.96 15.43 12.96C15.37 12.98 15.31 12.98 15.25 12.98C15.19 13 15.11 13 15.03 13H8.22999L10.45 18.5C10.47 18.64 10.39 18.76 10.31 18.84C10.23 18.94 10.07 19 9.96999 19H6.94999C6.84999 19 6.68999 18.94 6.60999 18.84C6.52999 18.76 6.44999 18.64 6.46999 18.5L5.46999 13H4.24999L4.22999 12.98C3.72999 13.04 3.14999 12.8 2.68999 12.36C2.22999 11.92 1.80999 11.28 1.62999 10.48C1.38999 9.67999 1.42999 8.91999 1.60999 8.27999C1.78999 7.65999 2.18999 7.19999 2.66999 6.97999L2.68999 6.95999L11.69 1.55999C11.79 1.49999 11.87 1.45999 11.93 1.39999C11.99 1.35999 12.07 1.31999 12.17 1.27999C12.33 1.19999 12.45 1.15999 12.67 1.09999C13.71 0.799992 14.91 1.19999 15.89 2.07999C16.87 2.95999 17.73 4.31999 18.15 5.93999ZM15.57 11.92H15.55C15.95 11.82 16.29 11.58 16.59 11.22C17.17 10.52 17.45 9.45999 17.45 8.17999C17.45 7.53999 17.35 6.87999 17.17 6.19999C16.83 4.83999 16.15 3.69999 15.39 2.95999C14.63 2.21999 13.71 1.85999 12.93 2.07999C12.11 2.29999 11.53 3.03999 11.23 4.07999C10.91 5.11999 10.95 6.43999 11.29 7.79999C11.67 9.15999 12.29 10.3 13.09 11.04C13.87 11.78 14.71 12.14 15.57 11.92ZM13.03 4.83999C13.25 4.79999 13.45 4.81999 13.65 4.87999C14.03 5.03999 14.41 5.35999 14.67 5.87999C14.93 6.39999 15.09 7.07999 15.09 7.65999C15.09 7.95999 15.05 8.21999 14.97 8.45999C14.79 8.93999 14.53 9.29999 14.11 9.39999C13.77 9.49999 13.31 9.33999 12.97 8.99999C12.63 8.65999 12.33 8.13999 12.19 7.49999C12.01 6.87999 12.07 6.25999 12.21 5.77999C12.35 5.29999 12.69 4.93999 13.03 4.83999Z" fill="black"/>
</svg>
