<svg width="20" height="20" viewBox="0 0 20 20" fill="none" xmlns="http://www.w3.org/2000/svg">
<path d="M13.2 13.8L9.10002 9.70001C8.90002 9.50001 8.70002 9.20001 8.70002 8.80001C8.70002 8.10001 9.30002 7.50001 10 7.50001C10.1 7.50001 10.3 7.50001 10.4 7.60001C11.1 7.80001 11.5 8.50001 11.3 9.20001C11.2 9.70001 11.4 10.2 11.9 10.3C12.4 10.4 12.9 10.2 13 9.70001C13.1 9.40001 13.1 9.10001 13.1 8.80001C13.1 7.10001 11.7 5.70001 10 5.70001C9.20002 5.70001 8.40002 6.00001 7.80002 6.60001C6.60002 7.80001 6.60002 9.80001 7.80002 11L11.9 15.1C12.3 15.5 12.8 15.5 13.2 15.1C13.6 14.8 13.6 14.2 13.2 13.8ZM14.9 4.00001C12.2 1.40001 8.00002 1.30001 5.30002 4.00001C2.60002 6.70001 2.60002 11 5.30002 13.6L9.40002 17.7C9.80002 18.1 10.3 18.1 10.7 17.7C11.1 17.3 11.1 16.8 10.7 16.4L6.60002 12.3C4.70002 10.4 4.70002 7.20001 6.60002 5.30001C8.50002 3.40001 11.7 3.40001 13.6 5.30001C15.2 7.00001 15.4 9.70001 14.1 11.6C13.8 12 14 12.6 14.4 12.9C14.8 13.2 15.4 13 15.7 12.6C17.4 9.90001 17.1 6.30001 14.9 4.00001Z" fill="black"/>
</svg>
