<svg width="20" height="20" viewBox="0 0 20 20" fill="none" xmlns="http://www.w3.org/2000/svg">
<path d="M17.7 6.32001L19.11 7.74001L15.64 11.15L14.22 9.73001L15.06 8.91001C14.74 8.15001 14.25 7.34001 13.55 6.60001L8.94002 13.19L3.68002 17.89C3.29002 18.28 2.66002 18.28 2.26002 17.89L1.06002 16.68C0.967319 16.5875 0.893771 16.4776 0.84359 16.3566C0.793408 16.2357 0.767578 16.106 0.767578 15.975C0.767578 15.844 0.793408 15.7144 0.84359 15.5934C0.893771 15.4724 0.967319 15.3625 1.06002 15.27L12.03 5.35001C10.66 4.49001 8.82002 3.89001 6.36002 3.87001C9.06002 3.05001 11.31 2.94001 12.94 3.57001C14.64 4.23001 15.76 5.77001 16.85 7.15001L17.7 6.32001Z" fill="black"/>
</svg>
