<svg width="20" height="20" viewBox="0 0 20 20" fill="none" xmlns="http://www.w3.org/2000/svg">
<path d="M9 3C9 2.33 8.53 1.57 8 1C7.5 1.5 7 2.38 7 3C7 3.48 7.45 4 8 4C8.55 4 9 3.53 9 3ZM13 3C13 2.33 12.53 1.57 12 1C11.5 1.5 11 2.38 11 3C11 3.48 11.45 4 12 4C12.55 4 13 3.53 13 3ZM9 9V5.5C9 4.95 8.55 4.5 8 4.5C7.43 4.5 7 4.99 7 5.5V9C7 9.55 7.45 10 8 10C8.57 10 9 9.51 9 9ZM13 9V5.5C13 4.95 12.55 4.5 12 4.5C11.43 4.5 11 4.99 11 5.5V9C11 9.55 11.45 10 12 10C12.57 10 13 9.51 13 9ZM17 10C17 8.52 15.59 7.23 13.5 6.54V9C13.5 9.83 12.83 10.5 12 10.5C11.17 10.5 10.5 9.83 10.5 9V6.01C10.33 6.01 10.17 6 10 6C9.83 6 9.67 6.01 9.5 6.01V9C9.5 9.83 8.83 10.5 8 10.5C7.17 10.5 6.5 9.83 6.5 9V6.54C4.41 7.23 3 8.52 3 10C3 11.41 3.95 12.65 6.21 13.37C7.32 13.72 8.6 14.49 10 14.49C11.4 14.49 12.69 13.71 13.79 13.36C16.04 12.65 17 11.41 17 10ZM10 15.43C11.43 15.43 12.74 14.64 13.88 14.32C15.78 13.79 16.37 12.98 17 12V15C17 17.21 13.87 19 10 19C6.13 19 3 17.21 3 15V12C3.64 12.99 4.32 13.8 6.15 14.33C7.28 14.66 8.59 15.43 10 15.43Z" fill="black"/>
</svg>
