<svg width="20" height="20" viewBox="0 0 20 20" fill="none" xmlns="http://www.w3.org/2000/svg">
<path d="M4.45998 5.16L4.99998 7.46L4.45998 9.75L6.46998 10.99L7.69998 13L9.99998 12.46L12.3 13L13.53 10.99L15.54 9.75L15 7.46L15.54 5.16L13.54 3.92L12.3 1.91L9.99998 2.46L7.70998 1.92L6.45998 3.92L4.45998 5.16ZM10.01 11.5C8.94911 11.5 7.93169 11.0786 7.18155 10.3284C6.4314 9.57828 6.00998 8.56087 6.00998 7.5C6.00998 6.43913 6.4314 5.42172 7.18155 4.67157C7.93169 3.92143 8.94911 3.5 10.01 3.5C12.21 3.5 14 5.29 14 7.49C14 9.71 12.21 11.5 10.01 11.5ZM9.98998 10.5C8.32998 10.5 6.99998 9.16 6.99998 7.5C6.99998 5.85 8.32998 4.5 9.98998 4.5C11.65 4.5 13 5.85 13 7.5C13 9.16 11.65 10.5 9.98998 10.5ZM13.83 11.6L12.55 13.84L10.47 13.37L13 19.2L14.4 17H16.9L13.83 11.6ZM6.12998 11.67L7.37998 13.92L9.50998 13.41L6.99998 19.2L5.59998 17H3.09998L6.12998 11.67Z" fill="black"/>
</svg>
