<svg width="20" height="20" viewBox="0 0 20 20" fill="none" xmlns="http://www.w3.org/2000/svg">
<path d="M8.75 5.77C8.75 4.39 7 2 7 2C7 2 5.25 4.39 5.25 5.77C5.25 7.15 5.9 7.5 7 7.5C8.1 7.5 8.75 7.15 8.75 5.77ZM14.75 5.77C14.75 4.39 13 2 13 2C13 2 11.25 4.39 11.25 5.77C11.25 7.15 11.9 7.5 13 7.5C14.1 7.5 14.75 7.15 14.75 5.77ZM9 17V9C9 8.45 8.55 8 8 8H6C5.45 8 5 8.45 5 9V17C5 17.55 5.45 18 6 18H8C8.55 18 9 17.55 9 17ZM15 17V9C15 8.45 14.55 8 14 8H12C11.45 8 11 8.45 11 9V17C11 17.55 11.45 18 12 18H14C14.55 18 15 17.55 15 17ZM6 11L8 10V12L6 13V11ZM12 11L14 10V12L12 13V11ZM6 14L8 13V15L6 16V14ZM12 14L14 13V15L12 16V14Z" fill="black"/>
</svg>
