<svg width="20" height="20" viewBox="0 0 20 20" fill="none" xmlns="http://www.w3.org/2000/svg">
<path d="M10 2C14.42 2 18 5.58 18 10C18 14.42 14.42 18 10 18C5.58 18 2 14.42 2 10C2 5.58 5.58 2 10 2ZM11.13 11.38L11.48 4.92H8.52L8.87 11.38H11.13ZM11.04 14.74C11.28 14.51 11.41 14.19 11.41 13.78C11.41 13.36 11.29 13.04 11.05 12.81C10.81 12.58 10.46 12.46 9.99 12.46C9.52 12.46 9.17 12.58 8.92 12.81C8.67 13.04 8.55 13.36 8.55 13.78C8.55 14.19 8.68 14.51 8.93 14.74C9.19 14.97 9.54 15.08 9.99 15.08C10.44 15.08 10.79 14.97 11.04 14.74Z" fill="black"/>
</svg>
