<svg width="20" height="20" viewBox="0 0 20 20" fill="none" xmlns="http://www.w3.org/2000/svg">
<path d="M10.2 2C5.8 2 3.5 4.8 3.5 7.9C3.5 9.4 4.3 10.9 5.6 11.7C6 11.9 5.9 11.7 6.2 10.5C6.2 10.4 6.2 10.3 6.1 10.2C4.3 8 5.8 3.7 10 3.7C16.1 3.7 14.9 12.1 11.1 12.1C10.3 12.2 9.6 11.6 9.6 10.8V10.4C10 9.3 10.3 8.3 10.4 7.2C10.4 5.1 7.3 5.4 7.3 8.2C7.3 8.7 7.4 9.2 7.6 9.6C7.6 9.6 6.6 13.7 6.4 14.4C6.2 15.6 6.3 16.8 6.5 17.9C6.4 18 6.5 18 6.5 18H6.6C7.3 17 7.9 16 8.3 14.9C8.4 14.4 8.9 12.6 8.9 12.6C9.4 13.3 10.3 13.7 11.2 13.7C14.3 13.7 16.5 11 16.5 7.7C16.5 4.4 13.7 2 10.2 2Z" fill="black"/>
</svg>
