<svg width="20" height="20" viewBox="0 0 20 20" fill="none" xmlns="http://www.w3.org/2000/svg">
<path d="M1.99999 18.43C3.50999 19.79 13.64 13.76 15.14 11.22C15.86 10 15.01 8.21 13.62 6.78C15.2 5.73 16.59 9 17.91 8.31C18.51 7.99 18.9 7 18.61 6.39C18.09 5.31 16.36 5.31 15.19 5.18C16.02 4.98 18.01 4.13 18.05 2.93C18.09 2.01 16.92 0.959999 16 1.07C14.79 1.21 14.35 2.95 13.94 4.07C13.89 3.36 13.74 1.8 12.96 1.12C11.92 0.209999 10.67 1.07 10.64 2.17C10.6 3.5 13.46 4.24 12.56 5.84C11.04 4.67 9.24999 4.03 8.09999 4.7C7.60999 5.01 7.04999 5.61 6.46999 6.39C7.35999 7.33 8.58999 8.46 9.55999 9.11C9.75999 9.25 9.81999 9.53 9.66999 9.73C9.52999 9.94 9.24999 9.99 9.04999 9.85C8.05999 9.18 6.84999 8.07 5.94999 7.14C5.49999 7.81 5.03999 8.57 4.60999 9.37C5.45999 10.23 6.53999 11.2 7.39999 11.78C7.59999 11.92 7.64999 12.2 7.50999 12.4C7.36999 12.61 7.08999 12.66 6.87999 12.52C6.02999 11.94 5.01999 11.04 4.16999 10.2C2.39999 13.69 1.09999 17.63 1.99999 18.43Z" fill="black"/>
</svg>
