<svg width="20" height="20" viewBox="0 0 20 20" fill="none" xmlns="http://www.w3.org/2000/svg">
<path d="M13 11V4C13 3.45 12.55 3 12 3H10.33L9 1H5L3.67 3H2C1.45 3 1 3.45 1 4V11C1 11.55 1.45 12 2 12H12C12.55 12 13 11.55 13 11ZM7 4.5C7.66304 4.5 8.29893 4.76339 8.76777 5.23223C9.23661 5.70107 9.5 6.33696 9.5 7C9.5 7.66304 9.23661 8.29893 8.76777 8.76777C8.29893 9.23661 7.66304 9.5 7 9.5C6.33696 9.5 5.70107 9.23661 5.23223 8.76777C4.76339 8.29893 4.5 7.66304 4.5 7C4.5 6.33696 4.76339 5.70107 5.23223 5.23223C5.70107 4.76339 6.33696 4.5 7 4.5ZM14 6H19V16.5C19 17.163 18.7366 17.7989 18.2678 18.2678C17.7989 18.7366 17.163 19 16.5 19C15.837 19 15.2011 18.7366 14.7322 18.2678C14.2634 17.7989 14 17.163 14 16.5C13.9999 16.1292 14.0823 15.7631 14.2412 15.4281C14.4001 15.0931 14.6315 14.7977 14.9187 14.5632C15.2058 14.3286 15.5416 14.1609 15.9015 14.0722C16.2615 13.9834 16.6367 13.9758 17 14.05V9H14V6ZM10 14.05V13H12V16.5C12 17.163 11.7366 17.7989 11.2678 18.2678C10.7989 18.7366 10.163 19 9.5 19C8.83696 19 8.20107 18.7366 7.73223 18.2678C7.26339 17.7989 7 17.163 7 16.5C6.99992 16.1292 7.08231 15.7631 7.2412 15.4281C7.40009 15.0931 7.6315 14.7977 7.91866 14.5632C8.20583 14.3286 8.54156 14.1609 8.90154 14.0722C9.26152 13.9834 9.63673 13.9758 10 14.05Z" fill="black"/>
</svg>
