<svg width="20" height="20" viewBox="0 0 20 20" fill="none" xmlns="http://www.w3.org/2000/svg">
<path fill-rule="evenodd" clip-rule="evenodd" d="M5.8 14H5V15H5.8C6.1 15 6.3 14.8 6.3 14.5C6.3 14.2 6.1 14 5.8 14ZM11 2H3V18H16V7L11 2ZM7.2 14.6C7.2 15.4 6.6 16 5.8 16H5V17H4V13H5.8C6.6 13 7.2 13.6 7.2 14.4V14.6ZM11.3 15.1C11.3 16.1 10.5 17 9.4 17H8V13H9.4C10.4 13 11.3 13.8 11.3 14.9V15.1ZM15 14H13V15H14.5V16H13V17H12V13H15V14ZM15 12H4V3H11V7H15V12ZM9.4 14H9V16H9.4C10 16 10.4 15.6 10.4 15C10.4 14.4 9.9 14 9.4 14Z" fill="black"/>
</svg>
