<svg width="20" height="20" viewBox="0 0 20 20" fill="none" xmlns="http://www.w3.org/2000/svg">
<path d="M6.09998 9.5V8.4C6.09998 7.9 5.89998 7.7 5.39998 7.6C5.99998 7.5 6.19998 7.3 6.19998 6.7V5.6C6.19998 5.2 6.29998 5.1 6.89998 5.1H7.19998V4.6H6.59998C5.69998 4.6 5.29998 4.8 5.29998 5.6C5.29998 6.1 5.39998 6.4 5.39998 6.8C5.39998 7 5.19998 7.3 4.49998 7.3V7.9C5.19998 7.9 5.39998 8.2 5.39998 8.4C5.39998 8.8 5.29998 9.1 5.29998 9.6C5.29998 10.4 5.69998 10.6 6.59998 10.6H7.09998V10H6.79998C6.29998 10 6.09998 9.9 6.09998 9.5ZM16.5 13.9C15.7 13.1 14.8 12.5 13.9 11.9C13.8 11.8 12.8 10.8 12.4 10.5C14.8 6.5 11.3 1.3 6.69998 2C2.29998 2.7 0.399976 8.2 3.49998 11.4C5.19998 13.3 8.09998 13.7 10.4 12.5C11 13.1 11.5 13.6 12 14.2C12.7 15.1 13.2 16 14.1 16.7C14.7 17.2 15.5 17.9 16.4 18C17.5 18.1 18.1 17.4 18.1 16.4C18 15.5 17.1 14.5 16.5 13.9ZM7.59998 11.6C5.39998 11.6 3.59998 9.8 3.59998 7.6C3.59998 5.4 5.39998 3.6 7.59998 3.6C9.79998 3.6 11.6 5.4 11.6 7.6C11.6 9.8 9.79998 11.6 7.59998 11.6ZM9.69998 6.8C9.69998 6.4 9.79998 6.1 9.79998 5.6C9.79998 4.8 9.39998 4.6 8.49998 4.6H7.99998V5.1H8.29998C8.79998 5.1 8.99998 5.2 8.99998 5.6V6.7C8.99998 7.2 9.19998 7.4 9.69998 7.5C9.09998 7.7 8.89998 7.9 8.89998 8.4V9.5C8.99998 9.9 8.79998 10 8.29998 10H7.99998V10.6H8.49998C9.39998 10.6 9.79998 10.4 9.79998 9.6C9.79998 9.1 9.69998 8.8 9.69998 8.4C9.69998 8.2 9.89998 7.9 10.6 7.9V7.3C9.89998 7.3 9.69998 7 9.69998 6.8Z" fill="black"/>
</svg>
