<svg width="20" height="20" viewBox="0 0 20 20" fill="none" xmlns="http://www.w3.org/2000/svg">
<path d="M8.03002 4.46002C7.74002 5.74002 8.58002 7.92002 10 7.92002C11.41 7.92002 12.25 5.74002 11.96 4.46002C11.74 3.48002 10.88 2.83002 10 2.83002C9.11002 2.83002 8.26002 3.48002 8.03002 4.46002ZM3.90002 5.36002C3.65002 6.44002 4.37002 8.29002 5.57002 8.29002C6.77002 8.29002 7.49002 6.44002 7.24002 5.36002C7.05002 4.53002 6.32002 3.97002 5.57002 3.97002C4.82002 3.97002 4.09002 4.53002 3.90002 5.36002ZM12.76 5.36002C12.51 6.44002 13.23 8.29002 14.42 8.29002C15.62 8.29002 16.34 6.44002 16.09 5.36002C15.9 4.53002 15.17 3.97002 14.42 3.97002C13.68 3.97002 12.95 4.53002 12.76 5.36002ZM12.17 16.79L13.42 12.49C14.2 10 12.71 8.47002 10 8.47002C7.28002 8.47002 5.79002 10 6.56002 12.49L7.82002 16.79C8.05002 17.51 9.00002 18 10 18C10.98 18 11.94 17.51 12.17 16.79ZM6.07002 9.16002C5.58002 9.83002 5.11002 10.99 5.65002 12.75L6.77002 16.54C6.43002 16.74 6.00002 16.85 5.57002 16.85C4.72002 16.85 3.92002 16.44 3.72002 15.82L2.65002 12.17C2.00002 10.06 3.26002 8.77002 5.57002 8.77002C5.84002 8.77002 6.11002 8.79002 6.36002 8.83002C6.26002 8.93002 6.16002 9.05002 6.07002 9.16002ZM14.42 8.77002C16.73 8.77002 18 10.06 17.34 12.17L16.27 15.82C16.07 16.44 15.27 16.85 14.42 16.85C13.99 16.85 13.56 16.74 13.22 16.54L14.33 12.77C14.88 10.99 14.41 9.83002 13.91 9.16002C13.83 9.05002 13.73 8.93002 13.63 8.83002C13.88 8.79002 14.14 8.77002 14.42 8.77002Z" fill="black"/>
</svg>
