<svg width="20" height="20" viewBox="0 0 20 20" fill="none" xmlns="http://www.w3.org/2000/svg">
<path d="M10.25 1.01998C15.35 1.01998 19 5.05998 19 10.02C19 14.98 15.35 19.02 10.25 19.02C8.74263 19.0256 7.2564 18.6654 5.91878 17.9705C4.58115 17.2756 3.43204 16.2665 2.57 15.03L5.16 13.51C6.26 15.01 8.02 16.02 10 16.02C13.3 16.02 16 13.23 16 10.02C16 6.80998 13.3 4.01998 10 4.01998C8.03 4.01998 6.28 5.01998 5.18 6.50998L7 8.01998L1 10.02V3.01998L2.89 4.59998C3.76327 3.48228 4.88024 2.57877 6.15575 1.95834C7.43126 1.33792 8.83161 1.01697 10.25 1.01998Z" fill="black"/>
</svg>
