<svg width="20" height="20" viewBox="0 0 20 20" fill="none" xmlns="http://www.w3.org/2000/svg">
<path fill-rule="evenodd" clip-rule="evenodd" d="M16.2 14.9C14.3 15.7 12.2 16.1 10.1 16.1C7.29998 16.1 4.59999 15.4 2.19998 14C1.99998 13.9 1.89998 14.1 1.99998 14.2C4.19999 16.2 6.99998 17.2 9.89998 17.2C12.2 17.2 14.5 16.5 16.4 15.2C16.8 15.1 16.5 14.7 16.2 14.9ZM18 13.9C17.1 13.5 16 13.6 15.2 14.2C15 14.3 15.1 14.5 15.2 14.4C15.8 14.3 17 14.2 17.2 14.5C17.4 14.8 17 16 16.7 16.5C16.6 16.7 16.8 16.7 16.9 16.6C17.7 15.9 18.1 14.9 18 13.9ZM8.99998 12.6C10.1 12.7 11.2 12.2 11.9 11.3C12.2 11.7 12.5 12.1 12.9 12.5C13 12.6 13.2 12.6 13.3 12.5C13.6 12.2 14.3 11.6 14.6 11.3C14.7 11.2 14.7 11 14.6 10.8C14.2 10.4 14 9.8 13.9 9.2V6.5C13.9 5.4 14 4.3 13.1 3.5C12.4 2.9 11.4 2.6 10.5 2.6C8.89998 2.7 6.99998 3.3 6.69998 5.3C6.69998 5.5 6.79998 5.6 6.99998 5.6L8.69998 5.8C8.89998 5.8 8.99998 5.6 8.99998 5.5C9.09998 4.8 9.69998 4.4 10.4 4.5C10.8 4.5 11.1 4.7 11.4 5C11.6 5.4 11.7 5.8 11.6 6.3V6.5C10.5 6.5 9.39998 6.7 8.29998 7.1C7.09999 7.5 6.29998 8.6 6.39998 9.9V10.3C6.39998 11.6 7.59998 12.7 8.99998 12.6ZM11.5 7.8V8.2C11.6 8.8 11.5 9.5 11.2 10C11 10.5 10.5 10.8 9.99998 10.8C9.29998 10.8 8.89998 10.3 8.89998 9.5C8.89998 8.1 10.2 7.8 11.5 7.8Z" fill="black"/>
</svg>
