<svg width="20" height="20" viewBox="0 0 20 20" fill="none" xmlns="http://www.w3.org/2000/svg">
<path d="M17.6 2.4C16.8 1.6 15.5 2.3 14.9 2.9L11.4 6.7L9 5.7L9.6 5.1C9.8 4.9 9.8 4.6 9.6 4.4C9.5 4.2 9.2 4.3 9 4.4L8.1 5.3L6.3 4.5L6.8 4C7 3.8 7 3.5 6.8 3.4C6.6 3.2 6.3 3.2 6.1 3.4L5.3 4.2L4.8 4C4 3.6 3.1 3.7 2.5 4.4L8.3 10.2L6 12.6L2.5 12.4L2 13.1L5.1 14.9L6.9 18L7.6 17.5L7.4 14L9.9 11.7L15.7 17.5C16.3 16.9 16.5 15.9 16.1 15.2L15.9 14.7L16.7 13.9C16.9 13.7 16.9 13.4 16.7 13.2C16.5 13 16.2 13 16 13.2L15.5 13.7L14.7 11.8L15.6 10.9C15.8 10.7 15.8 10.4 15.6 10.2C15.4 10 15.1 10 15 10.2L14.4 10.8L13.4 8.4L17.2 5C17.8 4.5 18.4 3.1 17.6 2.4Z" fill="black"/>
</svg>
