<svg width="20" height="20" viewBox="0 0 20 20" fill="none" xmlns="http://www.w3.org/2000/svg">
<path d="M11.9 0.389993L13.3 1.78999C14.91 1.97999 16.8 1.04999 17.91 2.15999C19.02 3.26999 18.09 5.15999 18.28 6.76999L19.68 8.16999C20.07 8.55999 20.07 9.18999 19.68 9.57999L10.49 18.78C10.09 19.17 9.46 19.17 9.07 18.78L1.29 11C0.899998 10.61 0.899998 9.97999 1.29 9.57999L10.49 0.389993C10.5825 0.29729 10.6924 0.223742 10.8134 0.173561C10.9343 0.123379 11.064 0.0975494 11.195 0.0975494C11.326 0.0975494 11.4556 0.123379 11.5766 0.173561C11.6976 0.223742 11.8075 0.29729 11.9 0.389993ZM12.48 2.63999L11.9 3.21999L16.85 8.16999L17.43 7.58999C17.24 6.98999 17.23 6.36999 17.28 5.76999C17.3 5.45999 17.33 5.14999 17.37 4.84999C17.49 3.84999 17.55 3.21999 17.2 2.86999C16.85 2.51999 16.22 2.57999 15.22 2.69999C14.92 2.73999 14.61 2.76999 14.3 2.78999C13.7 2.83999 13.08 2.82999 12.48 2.63999ZM16.5 3.56999C16.89 3.95999 16.89 4.59999 16.5 4.98999C16.11 5.37999 15.47 5.37999 15.08 4.98999C14.69 4.59999 14.69 3.95999 15.08 3.56999C15.47 3.17999 16.11 3.17999 16.5 3.56999ZM9.78 3.92999L9.07 4.62999L15.44 11L16.14 10.29L9.78 3.92999ZM8.36 5.33999L7.66 6.04999L14.02 12.41L14.73 11.71L8.36 5.33999ZM6.95 6.75999L6.24 7.45999L12.61 13.83L13.31 13.12L6.95 6.75999ZM5.54 8.16999L4.83 8.87999L11.19 15.24L11.9 14.53L5.54 8.16999ZM4.12 9.57999L3.41 10.29L9.78 16.66L10.49 15.95L4.12 9.57999Z" fill="black"/>
</svg>
