<svg width="20" height="20" viewBox="0 0 20 20" fill="none" xmlns="http://www.w3.org/2000/svg">
<path d="M15 2H7.54C6.71 2 5.95 2.2 5.26 2.6C4.56 3.01 4.01 3.56 3.61 4.25C3.2 4.94 3 5.7 3 6.52C3 7.34 3.2 8.1 3.61 8.79C4.01 9.48 4.56 10.03 5.26 10.43C5.95 10.84 6.71 11.04 7.54 11.04H7.97V17C7.97 17.27 8.07 17.51 8.26 17.71C8.46 17.9 8.7 18 8.97 18C9.25 18 9.48 17.9 9.68 17.71C9.88 17.51 9.98 17.27 9.98 17V5C9.98 4.73 10.07 4.49 10.27 4.29C10.47 4.1 10.71 4 10.98 4C11.25 4 11.49 4.1 11.69 4.29C11.88 4.49 11.98 4.73 11.98 5V17C11.98 17.27 12.08 17.51 12.28 17.71C12.48 17.9 12.71 18 12.99 18C13.26 18 13.5 17.9 13.7 17.71C13.89 17.51 13.99 17.27 13.99 17V4H15C15.27 4 15.5 3.9 15.7 3.7C15.9 3.51 16 3.27 16 3C16 2.73 15.9 2.49 15.7 2.29C15.6083 2.1978 15.4992 2.1247 15.379 2.07493C15.2589 2.02515 15.1301 1.99968 15 2Z" fill="black"/>
</svg>
