<svg width="20" height="20" viewBox="0 0 20 20" fill="none" xmlns="http://www.w3.org/2000/svg">
<path d="M15 8.8C15.1 8.7 15.3 8.7 15.4 8.7C15.5 8.7 15.7 8.7 15.8 8.8C15.9 8.9 16 9 16 9.1C16 9.2 16 9.3 15.9 9.4C15.9 9.5 15.8 9.6 15.7 9.7L15.1 10.3L14.1 11.3V12H16.9V11.3H15.2L15.7 10.8L16.4 10.1C16.5 10 16.6 9.8 16.7 9.6C16.8 9.4 16.8 9.3 16.8 9.1C16.8 8.9 16.7 8.7 16.6 8.5C16.5 8.3 16.3 8.2 16.2 8.1C16 8 15.8 7.9 15.5 8C15.3 8 15.2 8 15 8.1C14.9 8.1 14.7 8.2 14.6 8.2C14.4 8.3 14.3 8.4 14.1 8.6L14.6 9C14.7 8.9 14.9 8.8 15 8.8ZM16.7 15.3C16.5 15.1 16.2 15 16 15C16.3 14.9 16.5 14.8 16.6 14.6C16.8 14.4 16.8 14.2 16.8 14C16.8 13.7 16.7 13.4 16.4 13.3C16.1 13.1 15.8 13 15.4 13C14.9 13 14.5 13.1 14.1 13.4L14.5 14C14.6 13.9 14.8 13.8 15 13.8C15.1 13.8 15.3 13.7 15.4 13.7C15.8 13.7 16 13.9 16 14.2C16 14.4 15.9 14.5 15.8 14.6C15.6 14.7 15.3 14.7 15.1 14.7H14.8V15.4H15.1C15.4 15.4 15.6 15.4 15.9 15.5C16.1 15.6 16.1 15.7 16.1 15.9C16.1 16.1 16 16.3 15.9 16.4C15.7 16.5 15.5 16.6 15.3 16.6C15.1 16.6 14.9 16.6 14.7 16.5C14.5 16.5 14.3 16.4 14.2 16.3V17C14.6 17.2 15 17.2 15.4 17.2C15.8 17.2 16.3 17.1 16.6 16.9C16.9 16.7 17 16.3 17 16C17 15.7 16.9 15.5 16.7 15.3ZM15 4.2C15.1 4.2 15.2 4.1 15.3 3.9V7H16.1V3H15.4L14.1 4L14.5 4.5L15 4.2ZM4 6H13V5H4V6ZM4 11H13V10H4V11ZM4 16H13V15H4V16Z" fill="black"/>
</svg>
