<svg width="20" height="20" viewBox="0 0 20 20" fill="none" xmlns="http://www.w3.org/2000/svg">
<path d="M12.7 10C12.7 8.5 11.5 7.3 10 7.3C8.5 7.3 7.3 8.5 7.3 10C7.3 11.5 8.5 12.7 10 12.7C11.5 12.7 12.7 11.5 12.7 10ZM14.1 10C14.1 12.3 12.3 14.1 10 14.1C7.7 14.1 5.9 12.3 5.9 10C5.9 7.7 7.7 5.9 10 5.9C12.3 5.9 14.1 7.7 14.1 10ZM15.2 5.7C15.2 6.3 14.8 6.7 14.2 6.7C13.6 6.7 13.2 6.3 13.2 5.7C13.2 5.1 13.6 4.7 14.2 4.7C14.8 4.7 15.2 5.2 15.2 5.7ZM10 3.4C8.8 3.4 6.3 3.3 5.3 3.7C4.6 4 4 4.6 3.8 5.3C3.4 6.3 3.5 8.8 3.5 10C3.5 11.2 3.4 13.7 3.8 14.7C4 15.4 4.6 16 5.3 16.2C6.3 16.6 8.9 16.5 10 16.5C11.1 16.5 13.7 16.6 14.7 16.2C15.4 15.9 15.9 15.4 16.2 14.7C16.6 13.6 16.5 11.1 16.5 10C16.5 8.9 16.6 6.3 16.2 5.3C16 4.6 15.4 4 14.7 3.8C13.7 3.3 11.2 3.4 10 3.4ZM18 10V13.3C18 14.5 17.6 15.7 16.7 16.7C15.8 17.6 14.6 18 13.3 18H6.7C5.5 18 4.3 17.6 3.3 16.7C2.5 15.8 2 14.6 2 13.3V10V6.7C2 5.4 2.5 4.2 3.3 3.3C4.3 2.5 5.5 2 6.7 2H13.3C14.5 2 15.7 2.4 16.7 3.3C17.5 4.2 18 5.4 18 6.7V10Z" fill="black"/>
</svg>
