<svg width="20" height="20" viewBox="0 0 20 20" fill="none" xmlns="http://www.w3.org/2000/svg">
<g clip-path="url(#clip0_3:1738)">
<path d="M9 0C6.61305 0 4.32387 0.948212 2.63604 2.63604C0.948212 4.32387 0 6.61305 0 9C0 11.3869 0.948212 13.6761 2.63604 15.364C4.32387 17.0518 6.61305 18 9 18C11.3869 18 13.6761 17.0518 15.364 15.364C17.0518 13.6761 18 11.3869 18 9C18 6.61305 17.0518 4.32387 15.364 2.63604C13.6761 0.948212 11.3869 0 9 0V0ZM12.46 11.95C12.46 13.42 11.66 15.25 8.4 16.65C8.7 12.48 5.88 12.96 5.2 11.65C5.26193 11.1081 5.45927 10.5904 5.77384 10.1448C6.08841 9.69913 6.51008 9.33984 7 9.1C5.44817 8.83383 4.00093 8.14137 2.82 7.1C2.87 7.57 3.099 8.004 3.46 8.31C2.67791 8.0152 2.00216 7.49271 1.52 6.81C1.99677 5.2364 2.95032 3.84963 4.24898 2.84115C5.54763 1.83268 7.12735 1.25225 8.77 1.18C7.93 2.56 7.27 5.31 8.77 6.75C7.23 7 6.26 5 5.41 5.79C4.28 6.85 5.74 8.3 8.83 8.87C12.12 9.46 12.49 10.45 12.46 11.95ZM13.8 7.95C13.48 6.84 14.42 5.72 15.49 4.81C16.1582 5.77322 16.5836 6.88375 16.7299 8.0469C16.8761 9.21006 16.7389 10.3913 16.33 11.49C15.56 9.6 14.16 9.17 13.8 7.92V7.95Z" fill="black"/>
</g>
<defs>
<clipPath id="clip0_3:1738">
<rect width="20" height="20" fill="white"/>
</clipPath>
</defs>
</svg>
