<svg width="20" height="20" viewBox="0 0 20 20" fill="none" xmlns="http://www.w3.org/2000/svg">
<path d="M15 4H18V18H2V4H5V3C5 2.17 5.67 1.5 6.5 1.5C7.33 1.5 8 2.17 8 3V4H12V3C12 2.17 12.67 1.5 13.5 1.5C14.33 1.5 15 2.17 15 3V4ZM6 3V5.5C6 5.78 6.22 6 6.5 6C6.78 6 7 5.78 7 5.5V3C7 2.72 6.78 2.5 6.5 2.5C6.22 2.5 6 2.72 6 3ZM13 3V5.5C13 5.78 13.22 6 13.5 6C13.78 6 14 5.78 14 5.5V3C14 2.72 13.78 2.5 13.5 2.5C13.22 2.5 13 2.72 13 3ZM17 17V8H3V17H17ZM7 16V9H5V16H7ZM11 16V9H9V16H11ZM15 16V9H13V16H15Z" fill="black"/>
</svg>
