<svg width="20" height="20" viewBox="0 0 20 20" fill="none" xmlns="http://www.w3.org/2000/svg">
<path d="M10.44 3.02L12.26 1.2L18.62 7.55L16.79 9.37C16.266 9.03151 15.6419 8.88262 15.0215 8.94812C14.4011 9.01362 13.8218 9.28954 13.38 9.73L12.63 10.48C11.71 11.41 11.59 12.83 12.28 13.89L10.45 15.71L8.04 13.3L5.24 16.09C4.82 16.51 1.86 18.8 1.44 18.38C1.02 17.96 3.3 14.99 3.72 14.57L6.51 11.78L4.1 9.36L5.93 7.54C6.98 8.23 8.41 8.11 9.33 7.18L10.08 6.43C11.01 5.51 11.13 4.08 10.44 3.02Z" fill="black"/>
</svg>
