<svg width="20" height="20" viewBox="0 0 20 20" fill="none" xmlns="http://www.w3.org/2000/svg">
<path d="M6 7V3H5.31L4.02 4.03L4.42 4.54L4.88 4.17C4.94 4.12 5.04 4.03 5.18 3.89L5.16 4.31V7H6ZM8 5H17V6H8V5ZM6.77 11.95V11.25H5.05V11.21L5.56 10.73C5.89 10.42 6.13 10.19 6.26 10.02C6.4 9.85 6.5 9.69 6.56 9.53C6.63 9.37 6.66 9.2 6.66 9.02C6.66 8.81 6.61 8.62 6.5 8.46C6.4 8.3 6.25 8.18 6.06 8.09C5.87 8 5.65 7.95 5.41 7.95C5.22 7.95 5.05 7.97 4.9 8.01C4.75 8.04 4.61 8.1 4.48 8.16C4.36 8.23 4.19 8.35 4 8.51L4.45 9.05C4.61 8.92 4.76 8.82 4.9 8.75C5.05 8.68 5.2 8.65 5.35 8.65C5.49 8.65 5.61 8.68 5.7 8.76C5.79 8.84 5.83 8.96 5.83 9.12C5.83 9.22 5.81 9.32 5.77 9.42C5.73 9.52 5.67 9.63 5.58 9.75C5.49 9.86 5.29 10.07 5 10.37L4.01 11.37V11.95H6.77ZM8 10H17V11H8V10ZM6.71 13.95C6.71 13.65 6.59 13.41 6.34 13.24C6.1 13.07 5.76 12.98 5.34 12.98C4.82 12.98 4.38 13.11 4.01 13.38L4.41 13.98C4.58 13.87 4.73 13.79 4.87 13.75C5.01 13.7 5.14 13.68 5.28 13.68C5.66 13.68 5.86 13.83 5.86 14.14C5.86 14.34 5.79 14.49 5.64 14.57C5.49 14.65 5.26 14.69 4.94 14.69H4.63V15.35H4.94C5.28 15.35 5.53 15.39 5.69 15.47C5.84 15.55 5.92 15.69 5.92 15.88C5.92 16.1 5.85 16.25 5.72 16.35C5.58 16.45 5.37 16.5 5.09 16.5C4.9 16.5 4.71 16.47 4.52 16.42C4.33 16.37 4.16 16.3 4 16.22V16.96C4.34 17.11 4.74 17.18 5.18 17.18C5.71 17.18 6.12 17.07 6.4 16.85C6.69 16.63 6.83 16.33 6.83 15.93C6.83 15.66 6.74 15.45 6.57 15.29C6.4 15.13 6.15 15.03 5.83 14.99V14.97C6.1 14.91 6.32 14.78 6.48 14.6C6.63 14.42 6.71 14.21 6.71 13.95ZM8 15H17V16H8V15Z" fill="black"/>
</svg>
