<svg width="20" height="20" viewBox="0 0 20 20" fill="none" xmlns="http://www.w3.org/2000/svg">
<path d="M10 0C15.52 0 20 4.48 20 10C20 15.52 15.52 20 10 20C4.48 20 0 15.52 0 10C0 4.48 4.48 0 10 0ZM10 0.5C4.75 0.5 0.5 4.75 0.5 10C0.5 15.25 4.75 19.5 10 19.5C15.25 19.5 19.5 15.25 19.5 10C19.5 4.75 15.25 0.5 10 0.5ZM10 1.5C14.7 1.5 18.5 5.3 18.5 10C18.5 14.7 14.7 18.5 10 18.5C5.3 18.5 1.5 14.7 1.5 10C1.5 5.3 5.3 1.5 10 1.5ZM11.8 3.21C11.23 3.21 10.7 3.38 10.25 3.66C11.0267 3.84438 11.7185 4.28515 12.2139 4.91112C12.7092 5.5371 12.9791 6.31175 12.98 7.11C12.98 7.8 12.77 8.44 12.43 8.98C13.0794 8.83708 13.6604 8.4766 14.0769 7.95828C14.4934 7.43996 14.7203 6.79491 14.72 6.13C14.72 4.52 13.41 3.21 11.8 3.21ZM9.42 4.21C9.03128 4.20358 8.64517 4.27469 8.28424 4.41918C7.92331 4.56367 7.5948 4.77864 7.31789 5.05153C7.04098 5.32441 6.82123 5.64975 6.67147 6.00853C6.52172 6.3673 6.44496 6.75233 6.4457 7.1411C6.44643 7.52988 6.52463 7.91461 6.67573 8.27282C6.82683 8.63103 7.0478 8.95554 7.32574 9.22738C7.60367 9.49923 7.93299 9.71296 8.29446 9.85609C8.65593 9.99922 9.0423 10.0689 9.431 10.061C10.1975 10.0455 10.9274 9.72967 11.4635 9.18155C11.9996 8.63344 12.2991 7.8968 12.2977 7.1301C12.2962 6.3634 11.9939 5.62789 11.4558 5.0818C10.9176 4.53571 10.1866 4.22266 9.42 4.21ZM13.67 9.22L13.16 9.81C15.5 10.5 15.61 13.42 15.61 13.42H16.89C16.89 8.71 13.67 9.22 13.67 9.22ZM11.57 10.02L9.45 12.11L7.33 10.02C3.12 10.24 3.89 15 3.89 15H14.97C15.44 10.02 11.57 10.02 11.57 10.02Z" fill="black"/>
</svg>
