<svg width="20" height="20" viewBox="0 0 20 20" fill="none" xmlns="http://www.w3.org/2000/svg">
<path d="M13.6 5.09997L10.5 8.19997L12.3 9.99997L15.4 6.89997C15.7 6.59997 15.6 5.89997 15.1 5.39997C14.6 4.89997 14 4.79997 13.6 5.09997ZM13.9 0.299974C13.2 -0.100026 4.1 7.59997 4.1 7.59997C4.1 7.59997 0.599999 5.49997 0.0999994 5.89997C-0.400001 6.29997 4.1 10.9 4.1 10.9C4.1 10.9 14.6 0.599974 13.9 0.299974ZM19.4 9.59997C18.9 9.09997 18.2 8.99997 17.9 9.29997L14.8 12.4L16.6 14.2L19.7 11C20 10.8 19.9 10.1 19.4 9.59997ZM7.7 8.59997C7 9.29997 6.6 11.3 6.6 12.4V16.2L5.4 17.4C4.8 18 4.8 18.9 5.4 19.5C6 20.1 6.9 20.1 7.5 19.5L8.7 18.3H12.5C13.7 18.3 15.5 17.9 16.2 17.2L17.4 16.4L8.5 7.49997L7.7 8.59997Z" fill="black"/>
</svg>
