<svg width="20" height="20" viewBox="0 0 20 20" fill="none" xmlns="http://www.w3.org/2000/svg">
<path d="M16.22 5.79999C16.69 6.48999 16.51 7.41999 15.82 7.87999C15.13 8.34999 14.2 8.16999 13.74 7.47999C13.58 7.23999 13.39 7.01999 13.19 6.80999C12.7788 6.39713 12.2892 6.07072 11.75 5.84999C11.48 5.72999 11.2 5.63999 10.91 5.58999C10.32 5.45999 9.68 5.45999 9.09 5.57999C8.8 5.63999 8.52 5.72999 8.25 5.84999C7.98 5.95999 7.72 6.09999 7.48 6.25999C7.24 6.41999 7.02 6.60999 6.82 6.80999C6.61 7.01999 6.42 7.23999 6.26 7.47999C6.1 7.71999 5.96 7.97999 5.85 8.23999C5.84 8.25999 5.84 8.26999 5.84 8.27999C5.74 8.51999 5.67 8.75999 5.61 8.99999H1V5.99999H3.66C3.7 5.92999 3.73 5.86999 3.78 5.79999C4.05 5.39999 4.35 5.02999 4.69 4.68999C5.03 4.34999 5.41 4.03999 5.8 3.77999C6.2 3.50999 6.63 3.26999 7.08 3.07999C7.53 2.88999 8.01 2.73999 8.49 2.64999C9.48 2.43999 10.52 2.43999 11.51 2.64999C11.99 2.73999 12.47 2.88999 12.92 3.07999C13.37 3.26999 13.8 3.50999 14.2 3.77999C14.59 4.03999 14.97 4.34999 15.31 4.68999C15.65 5.02999 15.95 5.39999 16.22 5.79999ZM12.5 9.99999C12.5 9.33695 12.2366 8.70107 11.7678 8.23223C11.2989 7.76338 10.663 7.49999 10 7.49999C9.33696 7.49999 8.70107 7.76338 8.23223 8.23223C7.76339 8.70107 7.5 9.33695 7.5 9.99999C7.5 10.663 7.76339 11.2989 8.23223 11.7678C8.70107 12.2366 9.33696 12.5 10 12.5C10.663 12.5 11.2989 12.2366 11.7678 11.7678C12.2366 11.2989 12.5 10.663 12.5 9.99999ZM3.78 14.2C3.66969 14.0372 3.59253 13.8542 3.55294 13.6615C3.51334 13.4689 3.51207 13.2703 3.54922 13.0771C3.58636 12.884 3.66118 12.7001 3.76941 12.5358C3.87764 12.3716 4.01716 12.2303 4.18 12.12C4.34284 12.0097 4.52581 11.9325 4.71847 11.8929C4.91113 11.8533 5.1097 11.8521 5.30284 11.8892C5.49599 11.9264 5.67993 12.0012 5.84416 12.1094C6.00839 12.2176 6.14969 12.3572 6.26 12.52C6.42 12.76 6.61 12.98 6.81 13.19C7.22115 13.6029 7.71076 13.9293 8.25 14.15C8.52 14.27 8.8 14.35 9.09 14.41C9.68 14.54 10.32 14.53 10.91 14.41C11.2 14.35 11.48 14.27 11.75 14.15C12.02 14.04 12.28 13.9 12.52 13.74C12.76 13.58 12.98 13.39 13.18 13.19C13.39 12.98 13.58 12.75 13.74 12.52C13.9 12.27 14.04 12.02 14.15 11.76C14.16 11.74 14.16 11.73 14.16 11.72C14.26 11.48 14.33 11.24 14.39 11H19V14H16.34C16.3 14.06 16.27 14.13 16.22 14.2C15.95 14.6 15.65 14.97 15.31 15.31C14.97 15.65 14.59 15.96 14.2 16.22C13.8 16.49 13.37 16.73 12.92 16.92C12.47 17.11 11.99 17.25 11.51 17.35C10.52 17.56 9.48 17.56 8.49 17.35C8.01 17.25 7.53 17.11 7.08 16.92C6.63 16.73 6.2 16.49 5.8 16.22C5.41 15.96 5.03 15.65 4.69 15.31C4.35 14.97 4.05 14.6 3.78 14.2Z" fill="black"/>
</svg>
