<svg width="20" height="20" viewBox="0 0 20 20" fill="none" xmlns="http://www.w3.org/2000/svg">
<path d="M15.84 2.76001C16.09 2.76001 16.33 2.80001 16.55 2.87001C16.78 2.94001 16.99 3.03001 17.19 3.12001L17.54 2.31001C17.02 2.05001 16.46 1.92001 15.85 1.92001C15.27 1.92001 14.76 2.05001 14.33 2.29001C13.9 2.54001 13.57 2.90001 13.34 3.37001C13.11 3.83001 13 4.38001 13 5.00001C13 5.99001 13.23 6.75001 13.7 7.28001C14.17 7.81001 14.85 8.07001 15.72 8.07001C16.32 8.07001 16.85 7.98001 17.32 7.81001V6.97001C17.06 7.05001 16.81 7.11001 16.58 7.16001C16.34 7.21001 16.09 7.24001 15.84 7.24001C15.25 7.24001 14.8 7.05001 14.5 6.67001C14.18 6.30001 14.03 5.74001 14.03 5.01001C14.03 4.31001 14.19 3.76001 14.51 3.36001C14.84 2.96001 15.28 2.76001 15.84 2.76001ZM6.5 8.00001H7.54L5.3 2.00001H4.24L2 8.00001H3.03L3.61 6.34001H5.9L6.5 8.00001ZM8 2.00001V8.00001H10.17C10.84 8.00001 11.36 7.85001 11.74 7.54001C12.12 7.24001 12.3 6.82001 12.3 6.28001C12.3 5.88001 12.2 5.56001 12 5.33001C11.81 5.09001 11.5 4.94001 11.07 4.86001V4.82001C11.42 4.76001 11.67 4.61001 11.85 4.38001C12.03 4.14001 12.13 3.85001 12.13 3.50001C12.13 2.98001 11.94 2.60001 11.57 2.36001C11.21 2.12001 10.61 2.00001 9.78 2.00001H8ZM8.98 4.48001V2.82001H9.83C10.27 2.82001 10.6 2.88001 10.8 3.01001C11.01 3.13001 11.11 3.34001 11.11 3.62001C11.11 3.93001 11.01 4.15001 10.82 4.28001C10.64 4.41001 10.34 4.48001 9.93 4.48001H8.98ZM5.64 5.50001H3.9L4.44 3.94001C4.58 3.54001 4.69 3.18001 4.76 2.84001L4.91 3.36001C4.98 3.59001 5.04 3.76001 5.08 3.87001L5.64 5.50001ZM8.98 5.27001H9.97C10.41 5.27001 10.73 5.35001 10.95 5.50001C11.16 5.65001 11.27 5.88001 11.27 6.19001C11.27 6.53001 11.16 6.78001 10.95 6.94001C10.74 7.10001 10.43 7.18001 10.02 7.18001H8.98V5.27001ZM4 13L9 18L18 10L17 9.00001L9 15L5 12L4 13Z" fill="black"/>
</svg>
