<svg width="20" height="20" viewBox="0 0 20 20" fill="none" xmlns="http://www.w3.org/2000/svg">
<path d="M12 9V3C12 2.46957 11.7893 1.96086 11.4142 1.58579C11.0391 1.21071 10.5304 1 10 1C8.88 1 8 1.94 8 3V9C8 10.1 8.9 11 10 11C11.13 11 12 10.06 12 9ZM16 9C16 11.97 13.84 14.43 11 14.91V17H13C13.56 17 14 17.45 14 18C14 18.55 13.56 19 13 19H7C6.45 19 6 18.55 6 18C6 17.45 6.45 17 7 17H9V14.91C6.17 14.43 4 11.97 4 9C4 8.45 4.45 8 5 8C5.56 8 6 8.45 6 9C6 10.0609 6.42143 11.0783 7.17157 11.8284C7.92172 12.5786 8.93913 13 10 13C11.0609 13 12.0783 12.5786 12.8284 11.8284C13.5786 11.0783 14 10.0609 14 9C14 8.45 14.45 8 15 8C15.56 8 16 8.45 16 9Z" fill="black"/>
</svg>
