<svg width="20" height="20" viewBox="0 0 20 20" fill="none" xmlns="http://www.w3.org/2000/svg">
<path d="M18 17V3C18 2.45 17.55 2 17 2H3C2.45 2 2 2.45 2 3V17C2 17.55 2.45 18 3 18H17C17.55 18 18 17.55 18 17ZM17 17H3V3H17V17ZM4.75 4H15.25C15.66 4 16 4.34 16 4.75V6H15V9H16V11H15V14H16V15.25C16 15.66 15.66 16 15.25 16H4.75C4.34 16 4 15.66 4 15.25V4.75C4 4.34 4.34 4 4.75 4ZM13 10C13 7.79 11.21 6 9 6C6.79 6 5 7.79 5 10C5 12.21 6.79 14 9 14C11.21 14 13 12.21 13 10ZM9 7L9.77 8.15C10.1334 8.30441 10.4436 8.56193 10.6622 8.89073C10.8808 9.21952 10.9982 9.60517 11 10C11 11.1 10.1 12 9 12C7.9 12 7 11.1 7 10C7 9.17 7.51 8.46 8.23 8.15L9 7Z" fill="black"/>
</svg>
