<svg width="20" height="20" viewBox="0 0 20 20" fill="none" xmlns="http://www.w3.org/2000/svg">
<path d="M10 9.6C9.4 9.6 9 10 9 10.6C9 11 9.3 11.3 9.6 11.4L9.3 12.8H10.6L10.3 11.4C10.7 11.3 10.9 11 10.9 10.6C11 10 10.6 9.6 10 9.6ZM10.1 5.3C9.4 5.3 8.7 5.8 8.7 6.5V8H11.4V6.5C11.3 5.8 10.8 5.3 10.1 5.3ZM10 2L3 5V8C3.1 12.4 5.9 16.3 10 17.9C14.1 16.3 16.9 12.4 17 8V5L10 2ZM14 13C14 13.6 13.6 14 13 14H7C6.4 14 6 13.6 6 13V9C6 8.4 6.4 8 7 8H7.3V6.5C7.4 5.1 8.6 4 10 4C11.4 4 12.6 5.1 12.7 6.5V8H13C13.6 8 14 8.4 14 9V13Z" fill="black"/>
</svg>
