<svg width="20" height="20" viewBox="0 0 20 20" fill="none" xmlns="http://www.w3.org/2000/svg">
<path d="M16.95 2.58C17.4159 3.04327 17.7857 3.59407 18.038 4.20073C18.2903 4.8074 18.4202 5.45796 18.4202 6.115C18.4202 6.77204 18.2903 7.4226 18.038 8.02926C17.7857 8.63593 17.4159 9.18673 16.95 9.65C15.44 11.16 13.2 11.49 11.36 10.66L9.49 13.97L6.5 14.28L5 18H2L1 16L8.95 8.31C8.03 6.44 8.33 4.13 9.88 2.58C10.3433 2.11407 10.8941 1.74433 11.5007 1.49202C12.1074 1.23971 12.758 1.10983 13.415 1.10983C14.072 1.10983 14.7226 1.23971 15.3293 1.49202C15.9359 1.74433 16.4867 2.11407 16.95 2.58ZM14.44 6.37C15.18 6.37 15.77 5.77 15.77 5.03C15.77 4.67726 15.6299 4.33897 15.3805 4.08955C15.131 3.84012 14.7927 3.7 14.44 3.7C14.0873 3.7 13.749 3.84012 13.4995 4.08955C13.2501 4.33897 13.11 4.67726 13.11 5.03C13.11 5.77 13.71 6.37 14.44 6.37Z" fill="black"/>
</svg>
