<svg width="20" height="20" viewBox="0 0 20 20" fill="none" xmlns="http://www.w3.org/2000/svg">
<path d="M10.6 9C10.2 8.9 9.8 8.7 9.5 8.4C9.2 8.3 9.1 8 9.1 7.8C9.1 7.6 9.2 7.3 9.4 7.2C9.7 7 10 6.8 10.3 6.9C10.9 6.9 11.4 7.2 11.7 7.6L12.6 6.4C12.3 6.1 12 5.9 11.7 5.7C11.4 5.5 11 5.4 10.6 5.4V4H9.4V5.4C8.9 5.5 8.4 5.8 8 6.2C7.6 6.7 7.3 7.3 7.4 7.9C7.4 8.5 7.6 9.1 8 9.5C8.5 10 9.2 10.3 9.8 10.6C10.1 10.7 10.5 10.9 10.8 11.1C11 11.3 11.1 11.6 11.1 11.9C11.1 12.2 11 12.5 10.8 12.8C10.5 13.1 10.1 13.2 9.8 13.2C9.4 13.2 8.9 13.1 8.6 12.8C8.3 12.6 8 12.3 7.8 12L6.8 13.1C7.1 13.5 7.4 13.8 7.8 14.1C8.3 14.4 8.9 14.7 9.5 14.7V16H10.6V14.5C11.2 14.4 11.7 14.1 12.1 13.7C12.6 13.2 12.9 12.4 12.9 11.7C12.9 11.1 12.7 10.4 12.2 10C11.7 9.5 11.2 9.2 10.6 9ZM10 2C5.6 2 2 5.6 2 10C2 14.4 5.6 18 10 18C14.4 18 18 14.4 18 10C18 5.6 14.4 2 10 2ZM10 16.9C6.2 16.9 3.1 13.8 3.1 10C3.1 6.2 6.2 3.1 10 3.1C13.8 3.1 16.9 6.2 16.9 10C16.9 13.8 13.8 16.9 10 16.9Z" fill="black"/>
</svg>
