<svg width="20" height="20" viewBox="0 0 20 20" fill="none" xmlns="http://www.w3.org/2000/svg">
<path d="M19 16V3C19 2.45 18.55 2 18 2H3C2.45 2 2 2.45 2 3V16C2 16.55 2.45 17 3 17H18C18.55 17 19 16.55 19 16ZM4 4H17V8H4V4ZM5 5V7H8V5H5ZM9 5V7H12V5H9ZM13 5V7H16V5H13ZM4.5 10C4.78 10 5 10.22 5 10.5C5 10.78 4.78 11 4.5 11C4.22 11 4 10.78 4 10.5C4 10.22 4.22 10 4.5 10ZM6 10H10V11H6V10ZM12 10H17V15H12V10ZM4.5 12C4.78 12 5 12.22 5 12.5C5 12.78 4.78 13 4.5 13C4.22 13 4 12.78 4 12.5C4 12.22 4.22 12 4.5 12ZM6 12H10V13H6V12ZM13 12V14H16V12H13ZM4.5 14C4.78 14 5 14.22 5 14.5C5 14.78 4.78 15 4.5 15C4.22 15 4 14.78 4 14.5C4 14.22 4.22 14 4.5 14ZM6 14H10V15H6V14Z" fill="black"/>
</svg>
