<svg width="20" height="20" viewBox="0 0 20 20" fill="none" xmlns="http://www.w3.org/2000/svg">
<path d="M14.76 1C15.6067 1.02102 16.4116 1.37213 17.003 1.97839C17.5944 2.58466 17.9254 3.39806 17.9254 4.245C17.9254 5.09194 17.5944 5.90534 17.003 6.5116C16.4116 7.11787 15.6067 7.46898 14.76 7.49C14.53 7.49 14.29 7.46 14.06 7.41L13 8.47V19H2V4H11.54C11.67 2 13.06 1 14.76 1ZM14.76 6.49C15.3554 6.49 15.9264 6.25347 16.3475 5.83245C16.7685 5.41144 17.005 4.84041 17.005 4.245C17.005 3.64959 16.7685 3.07856 16.3475 2.65755C15.9264 2.23653 15.3554 2 14.76 2C13.52 2 12.52 3.01 12.52 4.25C12.52 4.62 12.62 4.97 12.79 5.28L9.57 8.5C9.29 8.78 7.8 10.72 8.07 10.99C8.09 11.02 8.13 11.03 8.17 11.03C8.66 11.03 10.31 9.75 10.56 9.5L13.8 6.26C14.09 6.4 14.41 6.49 14.76 6.49Z" fill="black"/>
</svg>
