<svg width="20" height="20" viewBox="0 0 20 20" fill="none" xmlns="http://www.w3.org/2000/svg">
<path d="M15.45 6.25C17.28 7.19 17.43 9.43 16.15 11.23C15.35 12.35 13.82 13.11 12.69 13.01L10.05 18H9.00002L6.35002 13.01C5.22002 13.17 3.62002 12.38 2.80002 11.22C1.52002 9.42 1.67002 7.18 3.51002 6.25C3.99002 6.01 4.47002 5.92 4.94002 5.94C4.93002 6.34 4.95002 6.74 5.01002 7.15C5.27002 8.84 6.42002 10.68 7.87002 11.52C7.68002 12.07 7.38002 12.51 6.99002 12.77L9.00002 16.58V10.92C7.64002 10.55 6.26002 8.76 6.00002 7C5.60002 4.35 7.00002 2 9.50002 2C12 2 13.4 4.35 13 7C12.74 8.76 11.36 10.55 10 10.92V16.69L12.07 12.85C11.63 12.62 11.3 12.14 11.08 11.55C12.56 10.72 13.73 8.86 13.99 7.15C14.05 6.74 14.07 6.33 14.06 5.93C14.52 5.92 14.98 6.01 15.45 6.25Z" fill="black"/>
</svg>
