<svg width="20" height="20" viewBox="0 0 20 20" fill="none" xmlns="http://www.w3.org/2000/svg">
<path d="M15.82 12.25C16.08 12.25 16.32 12.23 16.56 12.18C16.79 12.13 17.04 12.06 17.29 11.98V12.82C16.83 12.99 16.3 13.08 15.71 13.08C14.83 13.08 14.17 12.82 13.7 12.29C13.31 11.85 13.08 11.25 13.02 10.5H12.08C12.2 10.71 12.26 10.98 12.26 11.29C12.26 11.83 12.08 12.24 11.71 12.55C11.33 12.85 10.81 13 10.15 13H8V10.5H6.59L7.52 13H6.49L5.9 11.33H3.62L3.04 13H2L2.93 10.5H2V9.5H3.31L4.24 7.01H5.3L6.22 9.5H8V7H9.77C10.77 7 11.18 7.17 11.54 7.41C11.91 7.65 12.09 8.03 12.09 8.54C12.09 8.89 12 9.18 11.82 9.41L11.74 9.5H13.03C13.08 9.1 13.18 8.73 13.34 8.4C13.57 7.94 13.89 7.58 14.32 7.34C14.75 7.09 15.25 6.97 15.83 6.97C16.44 6.97 17 7.09 17.52 7.35L17.17 8.16C16.97 8.06 16.75 7.98 16.53 7.91C16.31 7.84 16.07 7.8 15.82 7.8C15.27 7.8 14.83 8 14.51 8.39C14.28 8.68 14.13 9.05 14.07 9.5H17V10.5H14.05C14.11 11 14.25 11.4 14.49 11.69C14.79 12.06 15.24 12.25 15.82 12.25ZM4.44 8.96L4.26 9.5H5.3L5.08 8.89C5.04 8.78 4.99 8.61 4.91 8.38C4.84 8.14 4.79 7.97 4.77 7.87C4.69 8.2 4.59 8.56 4.44 8.96ZM8.97 7.87V9.5H10.16C10.44 9.48 10.65 9.41 10.8 9.32C10.99 9.19 11.08 8.97 11.08 8.66C11.08 8.38 10.98 8.18 10.78 8.05C10.58 7.93 10.25 7.87 9.81 7.87H8.97ZM5.64 10.51V10.5H3.91V10.51H5.64ZM10.92 10.52L10.89 10.5H8.97V12.18H10.01C10.41 12.18 10.72 12.1 10.93 11.95C11.14 11.79 11.24 11.55 11.24 11.21C11.24 10.9 11.13 10.67 10.92 10.52Z" fill="black"/>
</svg>
