<svg width="20" height="20" viewBox="0 0 20 20" fill="none" xmlns="http://www.w3.org/2000/svg">
<path d="M10 2C6.69 2 4 4.69 4 8C4 10.02 5.17 11.71 6.53 12.89C6.96 13.26 7.71 13.85 8.38 14.72C9.12 15.69 9.79 16.73 10 17.43C10.21 16.73 10.88 15.69 11.62 14.72C12.29 13.85 13.04 13.26 13.47 12.89C14.83 11.71 16 10.02 16 8C16 4.69 13.31 2 10 2ZM10 4.56C10.4517 4.56 10.8991 4.64898 11.3164 4.82185C11.7338 4.99473 12.113 5.24812 12.4324 5.56755C12.7519 5.88699 13.0053 6.26621 13.1781 6.68357C13.351 7.10093 13.44 7.54825 13.44 8C13.44 8.45175 13.351 8.89907 13.1781 9.31643C13.0053 9.73379 12.7519 10.113 12.4324 10.4324C12.113 10.7519 11.7338 11.0053 11.3164 11.1781C10.8991 11.351 10.4517 11.44 10 11.44C9.08766 11.44 8.21268 11.0776 7.56755 10.4324C6.92243 9.78732 6.56 8.91234 6.56 8C6.56 7.08766 6.92243 6.21268 7.56755 5.56755C8.21268 4.92243 9.08766 4.56 10 4.56Z" fill="black"/>
</svg>
