<svg width="20" height="20" viewBox="0 0 20 20" fill="none" xmlns="http://www.w3.org/2000/svg">
<path d="M12.72 2.00001C12.87 1.98001 12.98 2.02001 13.13 2.07001C13.69 2.26001 13.96 2.86001 13.79 3.42001C13.62 3.97001 12.79 6.46001 12.79 7.00001C12.79 7.53001 13.54 8.00001 14.14 8.00001H17.14C17.74 8.00001 18.14 8.40001 18.14 9.00001C18.14 9.60001 16.14 16 16.14 16C15.97 16.39 15.59 17 15.14 17H6V8.00001H8.14C8.55 7.59001 11.44 3.29001 11.72 2.73001C11.93 2.32001 12.32 2.05001 12.72 2.00001ZM2 8.00001H4V17H2V8.00001Z" fill="black"/>
</svg>
