<svg width="20" height="20" viewBox="0 0 20 20" fill="none" xmlns="http://www.w3.org/2000/svg">
<path d="M10.98 6.78L15.5 15C14.5 17 12 18 10 18C8 18 5.5 17 4.5 15L9 6.82C8.25 5.59 6.72 4.84 4.71 4.79L7.17 1.87C8.85 3.06 9.63 4.19 10.14 5.18C10.7 4.31 11.34 3.5 12.84 3.06L14.67 5.92C13.25 5.58 12.03 6 10.98 6.78ZM8.17 10.4L7.24 12.09C7.73 12.2 8.24 12.25 8.78 12.25C10.13 12.25 11.36 11.89 12.33 11.3L11.32 9.48C10.45 10.01 9.36 10.34 8.17 10.4ZM9.03 15.78C11.02 15.78 12.76 15.04 13.77 13.92L12.79 12.16C11.79 13.28 10.05 14.03 8.05 14.03C7.43 14.03 6.84 13.95 6.29 13.82L5.66 14.97C6.6 15.47 7.76 15.78 9.03 15.78Z" fill="black"/>
</svg>
