<svg width="20" height="20" viewBox="0 0 20 20" fill="none" xmlns="http://www.w3.org/2000/svg">
<path d="M20 6.38L18.99 9.2V9.19C18.47 9 17.96 9.03 17.46 9.27C16.96 9.51 16.61 9.89 16.42 10.41C16.23 10.93 16.26 11.44 16.49 11.94C16.73 12.44 17.11 12.78 17.64 12.97V12.98L16.63 15.8L1.57 10.42L2.56 7.63C3.08 7.82 3.59 7.79 4.09 7.55C4.59 7.32 4.93 6.94 5.12 6.42C5.31 5.9 5.28 5.39 5.04 4.89C4.93064 4.65225 4.77407 4.43923 4.57981 4.26389C4.38555 4.08854 4.15767 3.95453 3.91 3.87L4.93 1L20 6.38ZM15.03 12.07L16.4 8.31C16.52 8 16.5 7.66 16.36 7.36C16.22 7.06 15.97 6.83 15.66 6.71L8.14 3.98C7.5 3.75 6.77 4.1 6.54 4.72L5.17 8.48C4.93 9.13 5.27 9.85 5.91 10.08L13.43 12.82C13.57 12.87 13.71 12.9 13.86 12.9C14.38 12.9 14.86 12.57 15.03 12.07ZM7.97 4.45L15.48 7.18C15.67 7.25 15.82 7.39 15.91 7.57C15.99 7.75 16 7.95 15.93 8.14L14.56 11.9C14.43 12.28 13.98 12.49 13.6 12.35L6.09 9.61C5.90307 9.5423 5.75067 9.40316 5.66629 9.22315C5.58191 9.04313 5.57245 8.83698 5.64 8.65L7.01 4.89C7.11 4.6 7.4 4.4 7.71 4.4C7.8 4.4 7.88 4.42 7.97 4.45ZM14.79 16.59C15.14 16.86 15.54 17 15.99 17H16V20H0V17.04C0.55 17.04 1.03 16.84 1.41 16.45C1.8 16.07 2 15.59 2 15.04C2 14.49 1.8 14.02 1.41 13.63C1.02 13.24 0.55 13.04 0 13.04V10H1.05L0.77 10.8L3.64 11.82C3.13 11.98 2.75 12.44 2.75 13V17C2.75 17.69 3.31 18.25 4 18.25H12C12.69 18.25 13.25 17.69 13.25 17V15.25L14.08 15.55C14.2 15.98 14.44 16.33 14.79 16.59ZM3.25 17V13C3.25 12.59 3.59 12.25 4 12.25H4.83L12.75 15.08V17C12.75 17.41 12.41 17.75 12 17.75H4C3.59 17.75 3.25 17.41 3.25 17Z" fill="black"/>
</svg>
