<svg width="20" height="20" viewBox="0 0 20 20" fill="none" xmlns="http://www.w3.org/2000/svg">
<g clip-path="url(#clip0_3:1727)">
<path d="M9 0C6.61305 0 4.32387 0.948212 2.63604 2.63604C0.948212 4.32387 0 6.61305 0 9C0 11.3869 0.948212 13.6761 2.63604 15.364C4.32387 17.0518 6.61305 18 9 18C11.3869 18 13.6761 17.0518 15.364 15.364C17.0518 13.6761 18 11.3869 18 9C18 6.61305 17.0518 4.32387 15.364 2.63604C13.6761 0.948212 11.3869 0 9 0V0ZM11.92 12.34C11.92 12.69 12.06 12.97 12.28 13C12.5 13.03 12.75 12.78 12.86 12.4L13.06 12.48C13.4084 12.6662 13.6821 12.9667 13.835 13.3309C13.988 13.6951 14.0109 14.1009 13.9 14.48C13.8265 14.8165 13.645 15.1197 13.3833 15.3436C13.1215 15.5674 12.7938 15.6996 12.45 15.72C11.96 14.51 10.34 15.78 8.89 15.5C8.58854 15.4241 8.31 15.2762 8.07833 15.0689C7.84667 14.8616 7.66879 14.6012 7.56 14.31C8.75 14.2 10.41 12.58 11.92 12.34ZM8 11.27C8.44419 11.2693 8.87312 11.1079 9.20763 10.8157C9.54214 10.5234 9.75965 10.1201 9.82 9.68C10.0321 9.94173 10.1418 10.2716 10.129 10.6082C10.1161 10.9448 9.98143 11.2652 9.75 11.51C9.62402 11.6203 9.47582 11.7023 9.31543 11.7504C9.15504 11.7985 8.98619 11.8116 8.8203 11.7889C8.6544 11.7661 8.49532 11.708 8.3538 11.6185C8.21229 11.529 8.09163 11.4102 8 11.27ZM11 10.51C11.41 10.9 14 10.45 14.52 11.6C13.57 11.4 11.57 12.21 11.05 10.52L11 10.51ZM9.73 5.45V5.72C9.08 4.95 8.4 4.65 8.12 5.15C7.84 5.65 9.12 6.26 8.88 7.03C8.64 7.8 7.61 7.59 7 8.64C6.39 9.69 6.51 11.06 8.24 12.31C7.65664 12.2453 7.10506 12.011 6.65358 11.6359C6.2021 11.2609 5.87055 10.7616 5.7 10.2C5.3 9 5.61 7.94 4.92 7.74C4 7.46 3 8.71 3 9.8C1.74 8.54 3.05 6.94 1.8 5.62C2.62181 3.87013 4.05748 2.48287 5.83451 1.72155C7.61154 0.960234 9.60624 0.877836 11.44 1.49C10.8953 1.99486 10.4618 2.6078 10.1674 3.28966C9.87293 3.97152 9.72397 4.70731 9.73 5.45Z" fill="black"/>
</g>
<defs>
<clipPath id="clip0_3:1727">
<rect width="20" height="20" fill="white"/>
</clipPath>
</defs>
</svg>
