<svg width="20" height="20" viewBox="0 0 20 20" fill="none" xmlns="http://www.w3.org/2000/svg">
<path d="M19 14.5V5.5C19 4.67 18.33 4 17.5 4H3.48999C2.65999 4 1.98999 4.67 1.98999 5.5V14.5C1.98999 15.33 2.65999 16 3.48999 16H17.5C18.33 16 19 15.33 19 14.5ZM17.69 5.39C18.02 5.72 17.84 6.06 17.66 6.23L13.6 9.95L17.5 14.01C17.62 14.15 17.7 14.37 17.56 14.52C17.43 14.68 17.13 14.67 17 14.57L12.63 10.84L10.49 12.79L8.35999 10.84L3.98999 14.57C3.85999 14.67 3.55999 14.68 3.42999 14.52C3.28999 14.37 3.36999 14.15 3.48999 14.01L7.38999 9.95L3.32999 6.23C3.14999 6.06 2.96999 5.72 3.29999 5.39C3.62999 5.06 3.96999 5.22 4.24999 5.46L10.49 10.5L16.74 5.46C17.02 5.22 17.36 5.06 17.69 5.39Z" fill="black"/>
</svg>
