<svg width="20" height="20" viewBox="0 0 20 20" fill="none" xmlns="http://www.w3.org/2000/svg">
<path d="M7.00002 5.20001C7.53045 5.20001 8.03916 5.41073 8.41423 5.7858C8.78931 6.16087 9.00002 6.66958 9.00002 7.20001C9.00002 7.57001 8.89002 7.91001 8.72002 8.20001C8.72002 8.20001 8.00002 8.00001 7.00002 8.00001C6.00002 8.00001 5.28002 8.20001 5.28002 8.20001C5.11002 7.91001 5.00002 7.57001 5.00002 7.20001C5.00002 6.66958 5.21073 6.16087 5.58581 5.7858C5.96088 5.41073 6.46959 5.20001 7.00002 5.20001ZM13 5.20001C14.11 5.20001 15 6.09001 15 7.20001C15 7.57001 14.89 7.91001 14.72 8.20001C14.72 8.20001 14 8.00001 13 8.00001C12 8.00001 11.28 8.20001 11.28 8.20001C11.11 7.91001 11 7.57001 11 7.20001C11 6.09001 11.89 5.20001 13 5.20001ZM10 18.9C11.8139 18.9014 13.5828 18.3352 15.0587 17.2808C16.5345 16.2263 17.6435 14.7364 18.23 13.02L16.91 12.56C15.9 15.52 13.12 17.5 10 17.5C6.88002 17.5 4.10002 15.52 3.09002 12.56L1.77002 13.02C2.35656 14.7364 3.46549 16.2263 4.94139 17.2808C6.41728 18.3352 8.18614 18.9014 10 18.9Z" fill="black"/>
</svg>
