<svg width="20" height="20" viewBox="0 0 20 20" fill="none" xmlns="http://www.w3.org/2000/svg">
<path d="M8.54001 12.74C8.54001 11.87 8.30001 11.13 7.82001 10.52C7.09001 9.6 5.68001 9.49 4.86001 9.67C4.52001 7.74 6.16001 5.28 8.28 4.22L6.65001 1.94C3.45001 3.46 0.310005 6.96 0.850005 11.37C1.19001 14.16 2.80001 16 5.08001 16C6.08001 16 6.91001 15.71 7.56001 15.12C8.22001 14.53 8.54001 13.74 8.54001 12.74ZM17.97 12.74C17.97 11.87 17.73 11.13 17.25 10.52C16.52 9.6 15.11 9.49 14.29 9.67C13.95 7.74 15.59 5.28 17.71 4.22L16.08 1.94C12.88 3.46 9.74 6.96 10.28 11.37C10.62 14.16 12.23 16 14.51 16C15.51 16 16.34 15.71 16.99 15.12C17.65 14.53 17.97 13.74 17.97 12.74Z" fill="black"/>
</svg>
