<svg width="20" height="20" viewBox="0 0 20 20" fill="none" xmlns="http://www.w3.org/2000/svg">
<path d="M18 3.5C18 4.12 17.62 4.66 17.08 4.88V17.99H1.98999L6.20999 11.26C6.07436 11.0295 6.00192 10.7674 5.99999 10.5C5.99999 9.67 6.66999 9 7.49999 9C8.32999 9 8.99999 9.67 8.99999 10.5C8.99999 10.63 8.97999 10.75 8.94999 10.87L10.39 11.5C10.66 11.2 11.06 11 11.5 11C11.68 11 11.85 11.04 12.01 11.09L15.59 4.68C15.23 4.41 15 3.98 15 3.5C15 2.67 15.67 2 16.5 2C16.69 2 16.86 2.04 17.03 2.1L17.08 2.01V2.12C17.62 2.34 18 2.88 18 3.5ZM16.08 16.99V5.85L12.79 11.74C12.92 11.97 13 12.22 13 12.5C13 13.33 12.33 14 11.5 14C10.67 14 9.99999 13.33 9.99999 12.5L10.01 12.43L8.37999 11.71C8.12999 11.89 7.82999 12 7.49999 12C7.31999 12 7.14999 11.96 6.98999 11.9L3.78999 16.99H16.08Z" fill="black"/>
</svg>
