<svg width="20" height="20" viewBox="0 0 20 20" fill="none" xmlns="http://www.w3.org/2000/svg">
<path d="M14.29 4.59L15.39 5.7C15.8 6.1 16 6.64 16 7.17V9.29C16 9.82 15.8 10.36 15.39 10.76L8.76 17.39C8.36 17.8 7.82 18 7.29 18C6.76 18 6.22 17.8 5.82 17.39L4.71 16.29L3.61 15.18C3.2 14.78 3 14.24 3 13.71V11.59C3 11.05 3.2 10.52 3.61 10.11L10.24 3.49C10.64 3.08 11.18 2.88 11.71 2.88C12.24 2.88 12.77 3.08 13.18 3.49L14.29 4.59ZM8.08 14.29L14.5 7.87C14.89 7.48 14.89 6.84 14.5 6.44L12.36 4.3C12.17 4.11 11.91 4.01 11.64 4.01C11.37 4.01 11.12 4.11 10.93 4.3L4.51 10.72C4.12 11.12 4.12 11.76 4.51 12.15L6.65 14.29C7.03 14.67 7.69 14.67 8.08 14.29Z" fill="black"/>
</svg>
