<svg width="20" height="20" viewBox="0 0 20 20" fill="none" xmlns="http://www.w3.org/2000/svg">
<path d="M11.9 8.4C13.2 8.4 14 6.5 14 5.3C14 4.3 13.5 3.1 12.5 3.1C11.2 3.1 10.4 5 10.4 6.2C10.4 7.2 10.9 8.4 11.9 8.4ZM8.09999 8.4C9.09999 8.4 9.59999 7.2 9.59999 6.2C9.59999 4.9 8.79999 3 7.49999 3C6.49999 3 5.99999 4.2 5.99999 5.2C5.89999 6.5 6.69999 8.4 8.09999 8.4ZM15.5 7.4C14.2 7.4 13.3 9.2 13.3 10.5C13.3 11.4 13.7 12.3 14.6 12.3C15.9 12.3 16.8 10.5 16.8 9.2C16.8 8.3 16.3 7.4 15.5 7.4ZM6.79999 10.5C6.79999 9.2 5.79999 7.4 4.59999 7.4C3.69999 7.4 3.29999 8.3 3.29999 9.2C3.29999 10.5 4.29999 12.3 5.49999 12.3C6.39999 12.3 6.79999 11.4 6.79999 10.5ZM9.99999 10.3C7.99999 10.3 5.29999 13.5 5.29999 15.7C5.29999 16.7 5.99999 17 6.79999 17C7.99999 17 8.89999 16.2 9.99999 16.2C11 16.2 11.9 17 13 17C13.8 17 14.7 16.8 14.7 15.7C14.7 13.5 12 10.3 9.99999 10.3Z" fill="black"/>
</svg>
