<svg width="20" height="20" viewBox="0 0 20 20" fill="none" xmlns="http://www.w3.org/2000/svg">
<path d="M18 18H2V2H18V18ZM8.05 7.53C8.18 7.46 8.29 7.38 8.38 7.29C8.47 7.19 8.55 7.08 8.62 6.95C8.69 6.81 8.75 6.69 8.79 6.58C8.83 6.47 8.86 6.36 8.89 6.24L8.95 6C8.95 5.96 8.96 5.93 8.96 5.91C9.01 5.59 8.99 5.3 8.92 5.01C8.84 4.73 8.69 4.49 8.46 4.29C8.23 4.1 7.95 4 7.6 4C7.4 4 7.21 4.04 7.04 4.11C6.87 4.19 6.73 4.29 6.63 4.41C6.52 4.54 6.43 4.68 6.36 4.85C6.29 5.01 6.25 5.18 6.24 5.36C6.23 5.54 6.24 5.72 6.25 5.91L6.27 6C6.28 6.06 6.3 6.15 6.33 6.25C6.36 6.35 6.39 6.46 6.43 6.58C6.47 6.7 6.53 6.83 6.6 6.95C6.68 7.07 6.76 7.18 6.85 7.28C6.94 7.38 7.05 7.47 7.19 7.53C7.32 7.59 7.47 7.62 7.62 7.62C7.77 7.62 7.92 7.59 8.05 7.53ZM16 5V4H11V5H16ZM16 7V6H11V7H16ZM7.62 8.83L6.24 7.95C5.83 7.95 5.45 8.06 5.1 8.27C4.75 8.49 4.48 8.77 4.29 9.12C4.1 9.46 4 9.82 4 10.19V11.44L4.2 11.49C4.33 11.53 4.51 11.58 4.75 11.63C4.99 11.69 5.26 11.75 5.55 11.8C5.84 11.86 6.17 11.9 6.55 11.94C6.92 11.98 7.28 12 7.62 12C7.96 12 8.31 11.98 8.69 11.94C9.07 11.9 9.39 11.85 9.67 11.8C9.94 11.75 10.21 11.7 10.49 11.63C10.76 11.57 10.94 11.52 11.03 11.5C11.12 11.47 11.19 11.45 11.24 11.44V10.19C11.24 9.83 11.14 9.47 10.93 9.12C10.72 8.77 10.44 8.48 10.09 8.26C9.74 8.04 9.37 7.93 8.98 7.93L7.62 8.83ZM16 9V8H13V9H16ZM16 11V10H13V11H16ZM16 14V13H4V14H16ZM16 16V15H4V16H16Z" fill="black"/>
</svg>
