<svg width="20" height="20" viewBox="0 0 20 20" fill="none" xmlns="http://www.w3.org/2000/svg">
<path d="M2 19H18C18.55 19 19 18.55 19 18V2C19 1.45 18.55 1 18 1H2C1.45 1 1 1.45 1 2V18C1 18.55 1.45 19 2 19ZM4 3C4.55 3 5 3.45 5 4C5 4.55 4.55 5 4 5C3.45 5 3 4.55 3 4C3 3.45 3.45 3 4 3ZM17 3V5H6V3H17ZM4 7C4.55 7 5 7.45 5 8C5 8.55 4.55 9 4 9C3.45 9 3 8.55 3 8C3 7.45 3.45 7 4 7ZM17 7V9H6V7H17ZM4 11C4.55 11 5 11.45 5 12C5 12.55 4.55 13 4 13C3.45 13 3 12.55 3 12C3 11.45 3.45 11 4 11ZM17 11V13H6V11H17ZM4 15C4.55 15 5 15.45 5 16C5 16.55 4.55 17 4 17C3.45 17 3 16.55 3 16C3 15.45 3.45 15 4 15ZM17 15V17H6V15H17Z" fill="black"/>
</svg>
