<svg width="20" height="20" viewBox="0 0 20 20" fill="none" xmlns="http://www.w3.org/2000/svg">
<path d="M7.4 5.6C7.3 5.3 7 5.2 6.7 5.2H4.4C4.2 5.2 4.1 5.3 4 5.5C4 5.6 4 5.7 4.1 5.7L5.7 8.4L3.2 12.7C3.1 12.8 3.1 12.9 3.2 13.1C3.3 13.2 3.4 13.3 3.5 13.3H5.8C6.1 13.3 6.3 13.1 6.4 12.9C6.4 12.9 8.8 8.7 8.9 8.5L7.4 5.6ZM16.8 2.5C16.9 2.4 16.9 2.3 16.8 2.1C16.7 2 16.6 2 16.5 2H14.2C13.9 2 13.7 2.2 13.6 2.4C13.6 2.4 8.6 11.2 8.5 11.5L11.8 17.5C11.9 17.8 12.2 17.9 12.4 17.9H14.7C14.8 17.9 14.9 17.9 15 17.8C15.1 17.7 15.1 17.6 15 17.5L11.8 11.6L16.8 2.5Z" fill="black"/>
</svg>
