<svg width="20" height="20" viewBox="0 0 20 20" fill="none" xmlns="http://www.w3.org/2000/svg">
<path d="M15 4H18V19H2V4H5V3C5 2.59 5.15 2.24 5.44 1.94C5.73 1.65 6.09 1.5 6.5 1.5C6.91 1.5 7.27 1.65 7.56 1.94C7.85 2.24 8 2.59 8 3V4H12V3C12 2.59 12.15 2.24 12.44 1.94C12.73 1.65 13.09 1.5 13.5 1.5C13.91 1.5 14.27 1.65 14.56 1.94C14.85 2.24 15 2.59 15 3V4ZM6 3V5.5C5.99878 5.566 6.01088 5.63156 6.03557 5.69278C6.06027 5.75399 6.09705 5.8096 6.14373 5.85627C6.1904 5.90295 6.24601 5.93973 6.30722 5.96443C6.36844 5.98912 6.434 6.00122 6.5 6C6.566 6.00122 6.63156 5.98912 6.69278 5.96443C6.75399 5.93973 6.8096 5.90295 6.85627 5.85627C6.90295 5.8096 6.93973 5.75399 6.96443 5.69278C6.98912 5.63156 7.00122 5.566 7 5.5V3C7 2.86 6.95 2.74 6.85 2.65C6.76 2.55 6.64 2.5 6.5 2.5C6.36 2.5 6.24 2.55 6.15 2.65C6.05 2.74 6 2.86 6 3ZM13 3V5.5C13 5.64 13.05 5.76 13.14 5.86C13.24 5.95 13.36 6 13.5 6C13.64 6 13.76 5.95 13.86 5.86C13.95 5.76 14 5.64 14 5.5V3C14.0012 2.934 13.9891 2.86844 13.9644 2.80722C13.9397 2.74601 13.9029 2.6904 13.8563 2.64373C13.8096 2.59705 13.754 2.56027 13.6928 2.53557C13.6316 2.51088 13.566 2.49878 13.5 2.5C13.434 2.49878 13.3684 2.51088 13.3072 2.53557C13.246 2.56027 13.1904 2.59705 13.1437 2.64373C13.0971 2.6904 13.0603 2.74601 13.0356 2.80722C13.0109 2.86844 12.9988 2.934 13 3ZM17 18V8H3V18H17ZM7 9V11H5V9H7ZM9 9H11V11H9V9ZM13 11V9H15V11H13ZM7 12V14H5V12H7ZM9 12H11V14H9V12ZM13 14V12H15V14H13ZM7 15V17H5V15H7ZM11 17H9V15H11V17ZM15 17H13V15H15V17Z" fill="black"/>
</svg>
