<svg width="20" height="20" viewBox="0 0 20 20" fill="none" xmlns="http://www.w3.org/2000/svg">
<path d="M10.2 3.28003C13.73 3.28003 16.63 5.89003 17.12 9.28003H19.2L15.7 13.28L12.2 9.28003H14.52C14.2963 8.30114 13.7473 7.42701 12.9626 6.8004C12.178 6.17379 11.2041 5.83171 10.2 5.83003C8.74999 5.83003 7.46999 6.54003 6.65999 7.61003L4.94999 5.66003C5.6045 4.91159 6.41167 4.31195 7.31722 3.90143C8.22278 3.49092 9.20573 3.27903 10.2 3.28003ZM9.79999 16.72C6.27999 16.72 3.36999 14.11 2.87999 10.72H0.799988L4.29999 6.72003C5.46999 8.05003 6.62999 9.39003 7.79999 10.72H5.47999C5.7037 11.6989 6.2527 12.5731 7.03733 13.1997C7.82196 13.8263 8.79586 14.1684 9.79999 14.17C11.25 14.17 12.53 13.46 13.34 12.39L15.05 14.34C14.3961 15.0892 13.5891 15.6894 12.6834 16.1C11.7777 16.5106 10.7944 16.722 9.79999 16.72Z" fill="black"/>
</svg>
