<svg width="20" height="20" viewBox="0 0 20 20" fill="none" xmlns="http://www.w3.org/2000/svg">
<path d="M6 4V17H10.54C11.91 17 13 16.67 13.8 16C14.6 15.34 15 14.42 15 13.23C15 12.39 14.83 11.72 14.49 11.22C14.15 10.72 13.59 10.37 12.82 10.19V10.1C13.39 10 13.84 9.7 14.18 9.2C14.52 8.7 14.69 8.07 14.69 7.29C14.69 6.15 14.3 5.31 13.52 4.79C12.75 4.26 11.5 4 9.78 4H6ZM8.57 9.15V6.26H9.93C10.66 6.26 11.2 6.37 11.54 6.58C11.88 6.8 12.05 7.16 12.05 7.65C12.05 8.19 11.89 8.57 11.58 8.8C11.27 9.03 10.76 9.15 10.07 9.15H8.57ZM8.57 11.34H10.17C11.61 11.34 12.33 11.87 12.33 12.95C12.33 13.55 12.16 14 11.82 14.29C11.48 14.58 10.96 14.72 10.25 14.72H8.57V11.34Z" fill="black"/>
</svg>
