<svg width="20" height="20" viewBox="0 0 20 20" fill="none" xmlns="http://www.w3.org/2000/svg">
<path d="M14 10C16.2 10 18 8.2 18 6C18 3.8 16.2 2 14 2C11.8 2 10 3.8 10 6C10 8.2 11.8 10 14 10ZM13 5V3H15V5H17V7H15V9H13V7H11V5H13ZM9 6C9 4.4 9.8 3 11 2H10C6.1 2 3 2.9 3 4C3 5 5.6 5.8 9 6ZM10 15C6.1 15 3 14.1 3 13V16C3 17.1 6.1 18 10 18C13.9 18 17 17.1 17 16V13C17 14.1 13.9 15 10 15ZM12.8 10.8C11.9 10.9 10.9 11 10 11C6.1 11 3 10.1 3 9V12C3 13.1 6.1 14 10 14C13.9 14 17 13.1 17 12V10C16.1 10.7 15.1 11 14 11C13.6 11 13.2 10.9 12.8 10.8ZM10 10H11C10 9.3 9.3 8.2 9.1 7C5.7 6.9 3 6 3 5V8C3 9.1 6.1 10 10 10Z" fill="black"/>
</svg>
