<svg width="20" height="20" viewBox="0 0 20 20" fill="none" xmlns="http://www.w3.org/2000/svg">
<path d="M14 5.87C14 3.67 12.21 1.87 10 1.87C7.79002 1.87 6.00002 3.67 6.00002 5.87C6.00002 8.08 7.79002 9.87 10 9.87C12.21 9.87 14 8.08 14 5.87ZM3.24002 10.66C2.78467 10.9217 2.38538 11.2706 2.065 11.6867C1.74462 12.1028 1.50943 12.5781 1.3729 13.0852C1.23637 13.5923 1.20116 14.1214 1.2693 14.6421C1.33745 15.1629 1.5076 15.6651 1.77002 16.12C2.30062 17.0401 3.17491 17.7119 4.20067 17.9875C5.22642 18.2632 6.31966 18.1202 7.24002 17.59C7.69507 17.3267 8.09382 16.9764 8.41347 16.559C8.73312 16.1416 8.96743 15.6653 9.103 15.1574C9.23858 14.6495 9.27277 14.1198 9.20363 13.5986C9.13448 13.0775 8.96335 12.575 8.70002 12.12C7.60002 10.21 5.15002 9.56 3.24002 10.66ZM12.76 17.59C14.68 18.69 17.12 18.04 18.23 16.13C19.33 14.21 18.68 11.77 16.76 10.66C14.85 9.56 12.4 10.21 11.3 12.12C11.0367 12.575 10.8656 13.0775 10.7964 13.5986C10.7273 14.1198 10.7615 14.6495 10.897 15.1574C11.0326 15.6653 11.2669 16.1416 11.5866 16.559C11.9062 16.9764 12.305 17.3267 12.76 17.59Z" fill="black"/>
</svg>
