<svg width="20" height="20" viewBox="0 0 20 20" fill="none" xmlns="http://www.w3.org/2000/svg">
<g clip-path="url(#clip0_3:1516)">
<path d="M17.728 11.456L14.592 8.32L17.792 5.12L16.256 3.584L13.056 6.784L9.92 3.648L8.384 5.12L11.584 8.32L8.32 11.584L9.856 13.12L13.12 9.856L16.256 12.992L17.728 11.456ZM0 17.92V0H20.48V17.92H0ZM19.2 11.52H18.752L17.472 10.24H19.2V6.4H17.408L18.688 5.12H19.2V1.28H1.28V5.12H7.488L8.768 6.4H1.28V10.24H8.704L7.424 11.52H1.28V15.36H19.2V11.52Z" fill="black"/>
</g>
<defs>
<clipPath id="clip0_3:1516">
<rect width="20" height="20" fill="white"/>
</clipPath>
</defs>
</svg>
