<svg width="20" height="20" viewBox="0 0 20 20" fill="none" xmlns="http://www.w3.org/2000/svg">
<path d="M15 2H5C4.4 2 4 2.4 4 3V17C4 17.6 4.4 18 5 18H15C15.6 18 16 17.6 16 17V3C16 2.4 15.6 2 15 2ZM6.5 16.8C5.8 16.8 5.3 16.2 5.3 15.6C5.3 15 5.9 14.4 6.5 14.4C7.1 14.4 7.7 15 7.7 15.6C7.7 16.2 7.2 16.8 6.5 16.8ZM6.5 13.2C5.8 13.2 5.3 12.6 5.3 12C5.3 11.4 5.9 10.8 6.5 10.8C7.1 10.8 7.7 11.4 7.7 12C7.7 12.6 7.2 13.2 6.5 13.2ZM6.5 9.8C5.8 9.8 5.3 9.2 5.3 8.6C5.3 8 5.9 7.4 6.5 7.4C7.1 7.4 7.7 8 7.7 8.6C7.7 9.2 7.2 9.8 6.5 9.8ZM10 16.8C9.3 16.8 8.8 16.2 8.8 15.6C8.8 15 9.4 14.4 10 14.4C10.6 14.4 11.2 15 11.2 15.6C11.2 16.2 10.7 16.8 10 16.8ZM10 13.2C9.3 13.2 8.8 12.6 8.8 12C8.8 11.4 9.4 10.8 10 10.8C10.6 10.8 11.2 11.4 11.2 12C11.2 12.6 10.7 13.2 10 13.2ZM10 9.8C9.3 9.8 8.8 9.2 8.8 8.6C8.8 8 9.3 7.2 10 7.2C10.7 7.2 11.2 7.8 11.2 8.4C11.2 9 10.7 9.8 10 9.8ZM14.8 15.5C14.8 16.2 14.2 16.7 13.6 16.7C13 16.7 12.4 16.1 12.4 15.5V12C12.4 11.3 13 10.8 13.6 10.8C14.2 10.8 14.8 11.4 14.8 12V15.5ZM13.5 9.8C12.8 9.8 12.3 9.2 12.3 8.6C12.3 8 12.9 7.4 13.5 7.4C14.1 7.4 14.7 8 14.7 8.6C14.7 9.2 14.2 9.8 13.5 9.8ZM15 6.4H5V3H15V6.4Z" fill="black"/>
</svg>
