<svg width="20" height="20" viewBox="0 0 20 20" fill="none" xmlns="http://www.w3.org/2000/svg">
<path d="M7.27999 18C7.12999 18.02 7.01999 17.98 6.86999 17.93C6.30999 17.74 6.03999 17.14 6.20999 16.58C6.37999 16.03 7.20999 13.54 7.20999 13C7.20999 12.47 6.45999 12 5.85999 12H2.85999C2.25999 12 1.85999 11.6 1.85999 11C1.85999 10.4 3.85999 4 3.85999 4C4.02999 3.61 4.40999 3 4.85999 3H14V12H11.86C11.45 12.41 8.55999 16.71 8.27998 17.27C8.06998 17.68 7.67999 17.95 7.27999 18ZM18 12H16V3H18V12Z" fill="black"/>
</svg>
