<svg width="20" height="20" viewBox="0 0 20 20" fill="none" xmlns="http://www.w3.org/2000/svg">
<path d="M12 5V2C12 1.45 11.55 1 11 1H9C8.45 1 8 1.45 8 2V5C8 5.55 8.45 6 9 6H11C11.55 6 12 5.55 12 5ZM10 2C10.55 2 11 2.45 11 3C11 3.55 10.55 4 10 4C9.45 4 9 3.55 9 3C9 2.45 9.45 2 10 2ZM18 15V7C18 5.9 17.1 5 16 5H13V5.33C13 6.25 12.25 7 11.33 7H8.67C7.75 7 7 6.25 7 5.33V5H4C2.9 5 2 5.9 2 7V15C2 16.1 2.9 17 4 17H16C17.1 17 18 16.1 18 15ZM17 9V15H3V9H17ZM9 11C9 10.45 8.78 10 8.5 10C8.22 10 8 10.45 8 11C8 11.55 8.22 12 8.5 12C8.78 12 9 11.55 9 11ZM12 11C12 10.45 11.78 10 11.5 10C11.22 10 11 10.45 11 11C11 11.55 11.22 12 11.5 12C11.78 12 12 11.55 12 11ZM6.04 12.21C6.96 12.69 8.38 13 10 13C11.62 13 13.04 12.69 13.96 12.21C13.75 13.21 12.07 14 10 14C7.93 14 6.25 13.21 6.04 12.21Z" fill="black"/>
</svg>
