<svg width="20" height="20" viewBox="0 0 20 20" fill="none" xmlns="http://www.w3.org/2000/svg">
<g clip-path="url(#clip0_3:1747)">
<path d="M9 0C6.61305 0 4.32387 0.948212 2.63604 2.63604C0.948212 4.32387 0 6.61305 0 9C0 11.3869 0.948212 13.6761 2.63604 15.364C4.32387 17.0518 6.61305 18 9 18C11.3869 18 13.6761 17.0518 15.364 15.364C17.0518 13.6761 18 11.3869 18 9C18 6.61305 17.0518 4.32387 15.364 2.63604C13.6761 0.948212 11.3869 0 9 0V0ZM16.5 6.48C16.3645 6.92347 16.1392 7.33431 15.8382 7.68699C15.5371 8.03966 15.1667 8.32661 14.75 8.53C14.528 7.6965 14.1178 6.92503 13.5509 6.27492C12.984 5.62482 12.2755 5.1134 11.48 4.78C11.6095 4.3363 11.8886 3.95113 12.27 3.69C11.84 3.41 11.27 3.27 10.93 3.76C10.4 4.45 10.93 5.37 11.14 5.76V5.9C10.5848 5.56323 10.1506 5.05906 9.9 4.46C8.93375 4.42897 7.97797 4.66791 7.14 5.15C7.05301 4.5854 7.108 4.00803 7.3 3.47C7.66111 3.50447 8.02515 3.44952 8.36 3.31C8.69485 3.17048 8.9902 2.95068 9.22 2.67C9.68 2.15 9.09 1.49 8.63 1.09H8.99C10.3514 1.08082 11.6918 1.4254 12.88 2.09C13.5516 2.58635 14.1039 3.22637 14.4966 3.96337C14.8893 4.70036 15.1126 5.51574 15.15 6.35C15.39 6.35 15.85 5.8 16.06 5.43C16.232 5.769 16.379 6.12 16.5 6.48ZM9 16.84C6.95 14.76 9.25 13.09 8 11.6C7.08 10.75 5.71 11.34 4.89 10.37C4.75158 9.64686 4.81142 8.89974 5.06317 8.20785C5.31493 7.51596 5.74922 6.90509 6.32 6.44C6.84 6 10.32 5.44 11.74 6.66C12.5705 7.37534 13.1548 8.33398 13.41 9.4C13.8689 9.43467 14.3279 9.33383 14.73 9.11C15.14 12.09 11.58 15.85 9 16.84ZM5.15 2.09C5.53218 1.94429 5.95202 1.93007 6.34318 2.04959C6.73434 2.16911 7.07453 2.41556 7.31 2.75C6.89 3.13 6.37 3.38 5.81 3.47C5.83068 3.17555 5.8947 2.88576 6 2.61L5.15 2.09Z" fill="black"/>
</g>
<defs>
<clipPath id="clip0_3:1747">
<rect width="20" height="20" fill="white"/>
</clipPath>
</defs>
</svg>
