<svg width="20" height="20" viewBox="0 0 20 20" fill="none" xmlns="http://www.w3.org/2000/svg">
<path d="M18.33 3.57C18.33 3.57 18.6 2.77 18.02 2.21C17.49 1.69 16.8 1.97 16.8 1.97C16.19 2.27 11.04 5.44 9.13002 7.54C8.27002 8.5 7.07002 11.33 8.04002 12.36C8.96002 13.34 12 12.19 12.83 11.36C14.89 9.3 18.04 4.19 18.33 3.57ZM1.40002 17.65C3.77002 16.09 2.86002 14.24 4.63002 13.01C5.56002 12.36 6.85002 12.39 7.71002 13.3C8.34002 13.97 8.51002 15.87 7.55002 16.76C5.98002 18.21 3.55002 18.31 1.40002 17.65Z" fill="black"/>
</svg>
