<svg width="20" height="20" viewBox="0 0 20 20" fill="none" xmlns="http://www.w3.org/2000/svg">
<path d="M8.58 2.39001C8.9 2.39001 9.17 2.44001 9.39 2.53001C10.64 3.08001 11.08 4.77001 11.09 6.50001C11.68 5.68001 13.24 4.21001 14.5 4.21001C15.76 4.21001 17.44 4.94001 18.03 7.76001C16.9 7.11001 15.61 6.82001 14.38 6.82001C13.12 6.82001 11.93 7.14001 11.09 7.71001C11.49 7.60001 11.95 7.55001 12.42 7.55001C13.81 7.55001 15.32 8.00001 15.82 8.86001C16.5 10.02 16.29 12.24 15.06 13C14.92 10.9 13.37 8.88001 11.59 8.88001C11.15 8.88001 10.71 9.00001 10.26 9.26001C8 10.62 7 14.56 7 19H2C2 13.47 6.21 9.35001 9.68 8.21001C9.12 8.12001 8.51 8.06001 7.86 8.06001C6.1 8.06001 4.05 8.50001 2 10C2.76 7.04001 4.78 5.90001 6.69 5.90001C7.94 5.90001 9.14 6.40001 9.89 7.19001C9.23 4.95001 7.4 4.33001 5.81 4.33001C5.01 4.33001 4.26 4.49001 3.76 4.68001C4.67 3.39001 7.07 2.39001 8.58 2.39001ZM13 11.5C13 10.67 12.33 10 11.5 10C10.67 10 10 10.67 10 11.5C10 12.33 10.67 13 11.5 13C12.33 13 13 12.33 13 11.5Z" fill="black"/>
</svg>
