<svg width="20" height="20" viewBox="0 0 20 20" fill="none" xmlns="http://www.w3.org/2000/svg">
<path d="M20 10C20 4.48 15.52 0 10 0C4.48 0 0 4.48 0 10C0 15.52 4.48 20 10 20C15.52 20 20 15.52 20 10ZM10 1.01C14.97 1.01 18.99 5.03 18.99 10C18.99 14.97 14.97 18.99 10 18.99C5.03 18.99 1.01 14.97 1.01 10C1.01 5.03 5.03 1.01 10 1.01ZM8.01 14.82L4.96 6.61C5.45 6.58 6.01 6.53 6.01 6.53C6.44 6.48 6.39 5.52 5.95 5.54C5.95 5.54 4.66 5.64 3.82 5.64C3.67 5.64 3.49 5.64 3.3 5.63C4.74 3.46 7.2 2.03 10 2.03C12.09 2.03 13.99 2.82 15.41 4.12C14.81 4.04 13.96 4.47 13.96 5.54C13.96 6.2 14.34 6.76 14.75 7.42C15.06 7.96 15.25 8.64 15.25 9.63C15.25 10.97 13.98 14.11 13.98 14.11L11.27 6.61C11.75 6.58 12.02 6.45 12.02 6.45C12.45 6.4 12.4 5.35 11.97 5.37C11.97 5.37 10.67 5.48 9.83 5.48C9.05 5.48 7.72 5.37 7.72 5.37C7.29 5.35 7.24 6.43 7.67 6.45L8.51 6.53L9.63 9.57L8.01 14.82ZM14.03 16.97L16.64 10C16.64 10 17.31 8.31 17.03 6.19C17.66 7.33 17.97 8.61 17.97 10C17.97 12.96 16.41 15.58 14.03 16.97ZM2.68 6.77L6.5 17.25C3.83 15.95 2.03 13.17 2.03 10C2.03 8.84 2.23 7.77 2.68 6.77ZM10.13 11.3L12.42 17.55C11.67 17.82 10.85 17.97 10 17.97C9.28 17.97 8.59 17.86 7.94 17.67L10.13 11.3Z" fill="black"/>
</svg>
