<svg width="20" height="20" viewBox="0 0 20 20" fill="none" xmlns="http://www.w3.org/2000/svg">
<path d="M17.2 4.49999C16.8 3.79999 16.2 3.29999 15.6 2.89999C13 1.29999 9.69997 1.99999 8.09997 4.49999C7.59997 5.29999 7.29997 6.29999 7.29997 7.19999C7.29997 8.69999 6.69997 10.2 5.69997 11.3L4.89997 12.1C4.39997 12.6 2.99997 12.3 2.39997 13.3C1.29997 15.2 3.09997 15.9 3.59997 16.4C4.09997 16.9 4.79997 18.8 6.69997 17.6C7.59997 17 7.29997 15.7 7.89997 15.1L8.69997 14.3C9.79997 13.3 11.3 12.7 12.8 12.7C13.1 12.7 13.4 12.7 13.6 12.6C12.8 11 13.4 9.09999 14.9 8.29999C15.8 7.79999 17 7.79999 17.9 8.29999C18.2 6.99999 17.9 5.59999 17.2 4.49999Z" fill="black"/>
</svg>
