<svg width="20" height="20" viewBox="0 0 20 20" fill="none" xmlns="http://www.w3.org/2000/svg">
<path d="M18 10C18 5.58 14.42 2 10 2C5.58 2 2 5.58 2 10C2 14.42 5.58 18 10 18C14.42 18 18 14.42 18 10ZM7.23 3.57L8.72 7.3C8.1 7.59 7.59 8.1 7.3 8.72L3.57 7.23C4.28072 5.58933 5.58933 4.28072 7.23 3.57ZM16.43 7.23L12.7 8.72C12.41 8.1 11.9 7.59 11.28 7.3L12.77 3.57C14.41 4.28 15.72 5.59 16.43 7.23ZM10 12C8.9 12 8 11.1 8 10C8 8.9 8.9 8 10 8C11.1 8 12 8.9 12 10C12 11.1 11.1 12 10 12ZM3.57 12.77L7.3 11.28C7.59 11.9 8.1 12.41 8.72 12.7L7.23 16.43C5.58933 15.7193 4.28072 14.4107 3.57 12.77ZM12.77 16.43L11.28 12.7C11.9 12.41 12.41 11.9 12.7 11.28L16.43 12.77C15.7193 14.4107 14.4107 15.7193 12.77 16.43Z" fill="black"/>
</svg>
