<svg width="20" height="20" viewBox="0 0 20 20" fill="none" xmlns="http://www.w3.org/2000/svg">
<path d="M5 3.61003V1.04003L13.99 1.03003L13.98 3.61003C13.3693 3.74173 12.822 4.07839 12.4291 4.56409C12.0362 5.04979 11.8213 5.6553 11.82 6.28003V6.78003C11.83 8.09003 12.75 9.18003 13.99 9.44003L13.98 12.02H10.57L10.56 14.59C10.56 15.19 10.09 19 9.5 19C8.9 19 8.42 15.19 8.42 14.59V12.03L5 12.02L5.01 9.44003C5.61976 9.31182 6.16663 8.97719 6.55831 8.49259C6.95 8.008 7.16251 7.40312 7.16 6.78003V6.28003C7.16 4.97003 6.24 3.87003 5 3.61003Z" fill="black"/>
</svg>
