<svg width="20" height="20" viewBox="0 0 20 20" fill="none" xmlns="http://www.w3.org/2000/svg">
<path d="M13 13.14L14.17 7.2C14.96 6.77 15.5 5.95 15.5 5C15.5 4.33696 15.2366 3.70107 14.7678 3.23223C14.2989 2.76339 13.663 2.5 13 2.5C12.337 2.5 11.7011 2.76339 11.2322 3.23223C10.7634 3.70107 10.5 4.33696 10.5 5C10.5 5.95 11.04 6.77 11.83 7.2L13 13.14ZM13 3.5C13.83 3.5 14.5 4.17 14.5 5C14.5 5.83 13.83 6.5 13 6.5C12.17 6.5 11.5 5.83 11.5 5C11.5 4.17 12.17 3.5 13 3.5ZM14.72 8.3L18 6.97V15.97L13.12 18L7 15.97L2 17.97V8.97L7 6.97L11.27 8.38L13 15.68L14.72 8.3Z" fill="black"/>
</svg>
