<svg width="20" height="20" viewBox="0 0 20 20" fill="none" xmlns="http://www.w3.org/2000/svg">
<path d="M2 7H6L11 3V17L6 13H2V7ZM14.69 4.54C14.82 4.59 18 5.92 18 10C18 14.08 14.82 15.41 14.69 15.46C14.6297 15.4862 14.5648 15.4999 14.4991 15.5004C14.4334 15.501 14.3683 15.4882 14.3077 15.463C14.247 15.4378 14.192 15.4007 14.146 15.3538C14.1 15.3069 14.064 15.2512 14.04 15.19C13.93 14.93 14.06 14.64 14.31 14.54C14.42 14.49 17 13.39 17 10C17 6.59 14.34 5.47 14.31 5.46C14.2492 5.43556 14.1939 5.39925 14.1473 5.35317C14.1006 5.3071 14.0637 5.2522 14.0386 5.19168C14.0134 5.13116 14.0006 5.06623 14.0008 5.00069C14.0011 4.93516 14.0144 4.87033 14.04 4.81C14.14 4.56 14.43 4.43 14.69 4.54ZM16 10C16 12.57 13.77 13.43 13.68 13.47C13.62 13.49 13.56 13.5 13.5 13.5C13.3 13.5 13.11 13.38 13.03 13.18C12.93 12.92 13.07 12.63 13.32 12.53C13.39 12.51 15 11.86 15 10C15 8.14 13.39 7.49 13.32 7.47C13.1981 7.41883 13.1002 7.32314 13.0464 7.20239C12.9925 7.08164 12.9866 6.94491 13.03 6.82C13.13 6.57 13.42 6.43 13.68 6.53C13.77 6.57 16 7.43 16 10Z" fill="black"/>
</svg>
