<svg width="20" height="20" viewBox="0 0 20 20" fill="none" xmlns="http://www.w3.org/2000/svg">
<path d="M3.75998 16H16.24C17.1825 14.824 17.7736 13.4056 17.9452 11.9083C18.1167 10.411 17.8617 8.89571 17.2095 7.53702C16.5574 6.17833 15.5346 5.03155 14.259 4.22884C12.9835 3.42613 11.5071 3.00016 9.99998 3C8.49288 3.00016 7.01648 3.42613 5.74094 4.22884C4.46539 5.03155 3.4426 6.17833 2.79043 7.53702C2.13826 8.89571 1.88325 10.411 2.05479 11.9083C2.22632 13.4056 2.81743 14.824 3.75998 16ZM9.99998 4C10.55 4 11 4.45 11 5C11 5.55 10.55 6 9.99998 6C9.44998 6 8.99998 5.55 8.99998 5C8.99998 4.45 9.44998 4 9.99998 4ZM5.99998 6C6.54998 6 6.99998 6.45 6.99998 7C6.99998 7.55 6.54998 8 5.99998 8C5.44998 8 4.99998 7.55 4.99998 7C4.99998 6.45 5.44998 6 5.99998 6ZM14 6C14.55 6 15 6.45 15 7C15 7.55 14.55 8 14 8C13.45 8 13 7.55 13 7C13 6.45 13.45 6 14 6ZM8.62998 11.55L12 7V13C12 14.1 11.1 15 9.99998 15C8.89998 15 7.99998 14.1 7.99998 13C7.99998 12.43 8.23998 11.92 8.62998 11.55ZM3.99998 10C4.54998 10 4.99998 10.45 4.99998 11C4.99998 11.55 4.54998 12 3.99998 12C3.44998 12 2.99998 11.55 2.99998 11C2.99998 10.45 3.44998 10 3.99998 10ZM16 10C16.55 10 17 10.45 17 11C17 11.55 16.55 12 16 12C15.45 12 15 11.55 15 11C15 10.45 15.45 10 16 10ZM11 13C11 12.45 10.55 12 9.99998 12C9.44998 12 8.99998 12.45 8.99998 13C8.99998 13.55 9.44998 14 9.99998 14C10.55 14 11 13.55 11 13Z" fill="black"/>
</svg>
