<svg width="20" height="20" viewBox="0 0 20 20" fill="none" xmlns="http://www.w3.org/2000/svg">
<path d="M4 16V14H2V16H1V11H2V13H4V11H5V16H4Z" fill="black"/>
<path d="M6.99998 16V12H5.59998V11H9.29998V12H7.99998V16H6.99998Z" fill="black"/>
<path d="M10 16V11H11L12.4 14.4H12.5L14 11H15V16H14V12.9H13.9L12.8 15.4H12.2L11.1 12.9H11V16H10Z" fill="black"/>
<path d="M19 16H16V11H17V15H19V16Z" fill="black"/>
<path d="M9.39999 4.2L7.09999 6.5L9.39999 8.8L8.79999 10L5.29999 6.5L8.79999 3L9.39999 4.2ZM10.6 8.8L12.9 6.5L10.6 4.2L11.2 3L14.7 6.5L11.2 10L10.6 8.8Z" fill="black"/>
</svg>
