<svg width="20" height="20" viewBox="0 0 20 20" fill="none" xmlns="http://www.w3.org/2000/svg">
<path d="M12 2L16 6V18H4V2H12ZM12 6H15L12 3V6ZM8 3.5V5.5L9.8 4.5L8 3.5ZM11 5L9.2 6L11 7V5ZM8 6.5V8.5L9.8 7.5L8 6.5ZM11 8L9.2 9L11 10V8ZM8 9.5V11.5L9.8 10.5L8 9.5ZM11 11L9.2 12L11 13V11ZM9.5 17C10.33 17 11.12 16.28 11 15.37C10.95 14.99 10.51 13.76 10.51 13.76L8.52 12.66C8.52 12.66 8.07 14.61 8 15.37C7.93 16.14 8.67 17 9.5 17ZM9.5 14.61C9.92 14.61 10.26 14.95 10.26 15.37C10.26 15.8 9.92 16.14 9.5 16.14C9.08 16.14 8.74 15.8 8.74 15.37C8.74 14.95 9.08 14.61 9.5 14.61Z" fill="black"/>
</svg>
