<svg width="20" height="20" viewBox="0 0 20 20" fill="none" xmlns="http://www.w3.org/2000/svg">
<path d="M17 10C17 6.13 13.86 3 10 3C6.13 3 3 6.13 3 10C3 13.87 6.13 17 10 17C13.86 17 17 13.87 17 10ZM10.7 11.48H9.14V11.05C9.14 10.67 9.22 10.35 9.38 10.07C9.54 9.79 9.84 9.5 10.26 9.18C10.67 8.89 10.94 8.65 11.07 8.47C11.21 8.29 11.27 8.08 11.27 7.85C11.27 7.6 11.18 7.41 10.99 7.27C10.8 7.14 10.54 7.08 10.2 7.08C9.62 7.08 8.95 7.27 8.2 7.65L7.56 6.37C8.43 5.88 9.36 5.63 10.33 5.63C11.14 5.63 11.78 5.83 12.25 6.21C12.73 6.6 12.96 7.12 12.96 7.76C12.96 8.19 12.87 8.56 12.67 8.87C12.48 9.19 12.1 9.54 11.56 9.93C11.18 10.21 10.95 10.42 10.85 10.56C10.75 10.71 10.7 10.9 10.7 11.13V11.48ZM9.23 14.22C9.05 14.05 8.96 13.8 8.96 13.49C8.96 13.16 9.04 12.91 9.22 12.74C9.4 12.57 9.65 12.49 9.99 12.49C10.31 12.49 10.56 12.58 10.74 12.75C10.92 12.92 11.01 13.17 11.01 13.49C11.01 13.79 10.92 14.04 10.74 14.21C10.56 14.39 10.31 14.48 9.99 14.48C9.66 14.48 9.41 14.39 9.23 14.22Z" fill="black"/>
</svg>
