<svg width="20" height="20" viewBox="0 0 20 20" fill="none" xmlns="http://www.w3.org/2000/svg">
<path d="M16 13C14.7 13 13.6 13.8 13.2 15H9C9 14.3 8.8 13.7 8.5 13.2L15.6 5.9C15.9 5.9 16.2 6 16.5 6C17.9 6 19 4.9 19 3.5C19 2.1 17.9 1 16.5 1C15.1 1 14 2.1 14 3.5C14 3.8 14.1 4.2 14.2 4.5L7.2 11.7C6.6 11.2 5.8 11 5 11V6.8C6.2 6.4 7 5.3 7 4C7 2.3 5.7 1 4 1C2.3 1 1 2.3 1 4C1 5.3 1.8 6.4 3 6.8V11.5C1.8 12.2 1 13.5 1 14.9C1 17.1 2.8 18.9 5 18.9C6.5 18.9 7.8 18.1 8.4 16.9H13.1C13.5 18 14.6 18.9 15.9 18.9C17.5 18.9 18.9 17.6 18.9 15.9C19 14.3 17.6 13 16 13Z" fill="black"/>
</svg>
