<svg width="20" height="20" viewBox="0 0 20 20" fill="none" xmlns="http://www.w3.org/2000/svg">
<g clip-path="url(#clip0_3:1520)">
<path d="M6.4 9.98L7.68 8.7V8.444L6.4 7.164V9.98ZM12.8 8.448L14.08 7.168V9.92L12.8 8.64V8.448ZM20.48 17.92V0H0V17.92H20.48ZM19.2 15.36H14.08V14.336L13.824 14.592L12.8 13.568V15.36H7.68V13.568L6.656 14.592L6.4 14.336V15.36H1.28V1.28H6.4V3.648L7.104 2.944L7.68 3.52V1.216H12.8V3.52L13.76 2.56L14.08 2.88V1.216H19.2V15.36ZM13.44 13.248L10.304 10.112L7.04 13.376L5.504 11.84L8.768 8.576L5.632 5.44L7.168 3.904L10.304 7.04L13.504 3.84L15.04 5.376L11.84 8.576L14.976 11.712L13.44 13.248Z" fill="black"/>
</g>
<defs>
<clipPath id="clip0_3:1520">
<rect width="20" height="20" fill="white"/>
</clipPath>
</defs>
</svg>
