<svg width="20" height="20" viewBox="0 0 20 20" fill="none" xmlns="http://www.w3.org/2000/svg">
<path d="M10 2.59998C10.83 2.59998 11.5 3.26998 11.5 4.09998C11.5 4.92998 10.83 5.60998 10 5.60998C9.18002 5.60998 8.50002 4.92998 8.50002 4.09998C8.50002 3.26998 9.18002 2.59998 10 2.59998ZM3.40002 7.35998C3.40002 6.70998 10 6.59998 10 6.59998C10 6.59998 16.6 6.70998 16.6 7.35998C16.6 8.00998 12.13 8.75998 12.13 8.75998C12.13 8.75998 13.82 16.9 13.19 17.14C12.57 17.38 10 11.95 10 11.95C10 11.95 7.44002 17.38 6.82002 17.14C6.19002 16.9 7.88002 8.75998 7.88002 8.75998C7.88002 8.75998 3.40002 8.00998 3.40002 7.35998Z" fill="black"/>
</svg>
