<svg width="20" height="20" viewBox="0 0 20 20" fill="none" xmlns="http://www.w3.org/2000/svg">
<path d="M16 4H17.96C18.53 4 19 4.47 19 5.04V17.96C19 18.53 18.53 19 17.96 19H5.04C4.47 19 4 18.53 4 17.96V16H2.04C1.47 16 1 15.53 1 14.96V2.04C1 1.47 1.47 1 2.04 1H14.96C15.53 1 16 1.47 16 2.04V4ZM3 14H14V3H3V14ZM8 5.5C8 4.67 7.33 4 6.5 4C5.67 4 5 4.67 5 5.5C5 6.33 5.67 7 6.5 7C7.33 7 8 6.33 8 5.5ZM10 10C10 10 11 5 13 5V13H4V7C6 7 6 10 6 10C6 10 6.33 8 8 8C9.67 8 10 10 10 10ZM17 17V6H16V14.96C16 15.53 15.53 16 14.96 16H6V17H17Z" fill="black"/>
</svg>
