<svg width="20" height="20" viewBox="0 0 20 20" fill="none" xmlns="http://www.w3.org/2000/svg">
<path d="M18 18L18.01 5.72C18.6 5.37 19 4.73 19 4C19 2.9 18.1 2 17 2C15.9 2 15 2.9 15 4C15 4.8 15.47 5.48 16.14 5.8L12.01 12.38C11.68 12.14 11.28 12 10.85 12C10.01 12 9.3 12.51 9 13.24L6.86 11.71C6.95 11.49 7 11.25 7 11C7 9.89 6.11 9 5 9C4.46957 9 3.96086 9.21071 3.58579 9.58579C3.21071 9.96086 3 10.4696 3 11C3.00179 11.3454 3.093 11.6844 3.26474 11.9841C3.43648 12.2838 3.6829 12.5339 3.98 12.71L1 18H18ZM17 3C17.55 3 18 3.45 18 4C18 4.55 17.55 5 17 5C16.45 5 16 4.55 16 4C16 3.45 16.45 3 17 3ZM5 10C5.55 10 6 10.45 6 11C6 11.55 5.55 12 5 12C4.45 12 4 11.55 4 11C4 10.45 4.45 10 5 10ZM10.85 13C11.4 13 11.85 13.45 11.85 14C11.85 14.55 11.4 15 10.85 15C10.3 15 9.85 14.55 9.85 14C9.85 13.45 10.3 13 10.85 13Z" fill="black"/>
</svg>
