<svg width="20" height="20" viewBox="0 0 20 20" fill="none" xmlns="http://www.w3.org/2000/svg">
<path d="M0 3H20V15H19.25C19.25 13.21 17.79 11.75 16 11.75C14.69 11.75 13.58 12.54 13.06 13.66C12.81 13.56 12.54 13.5 12.25 13.5C11.27 13.5 10.45 14.13 10.14 15H0V3ZM8.37 6.11C8.31 6.26 8.27 6.42 8.26 6.58C8.25 6.74 8.25 6.91 8.27 7.08L8.29 7.16C8.3 7.22 8.31 7.3 8.34 7.39C8.36 7.49 8.4 7.59 8.44 7.7C8.47 7.81 8.53 7.92 8.59 8.03C8.66 8.15 8.74 8.25 8.82 8.34C8.9 8.43 9 8.51 9.13 8.57C9.25 8.63 9.38 8.66 9.53 8.66C9.67 8.66 9.8 8.63 9.92 8.57C10.04 8.51 10.14 8.43 10.22 8.35C10.31 8.26 10.38 8.15 10.44 8.03C10.51 7.91 10.56 7.8 10.6 7.7C10.64 7.6 10.67 7.5 10.69 7.39C10.72 7.28 10.73 7.21 10.74 7.17C10.75 7.13 10.75 7.1 10.75 7.08C10.8 6.79 10.78 6.52 10.71 6.26C10.64 6 10.5 5.78 10.3 5.6C10.09 5.42 9.83 5.33 9.51 5.33C9.32 5.33 9.15 5.36 8.99 5.43C8.84 5.5 8.71 5.59 8.61 5.71C8.52 5.82 8.44 5.96 8.37 6.11ZM12.85 12.15V11.01C12.85 10.68 12.75 10.35 12.56 10.03C12.37 9.71 12.11 9.44 11.79 9.24C11.47 9.03 11.13 8.93 10.77 8.93L9.53 9.77L8.25 8.95C7.88 8.95 7.53 9.05 7.21 9.25C6.9 9.45 6.65 9.71 6.47 10.02C6.29 10.34 6.2 10.67 6.2 11.01V12.15L6.38 12.2C6.5 12.24 6.67 12.28 6.89 12.34C7.12 12.39 7.36 12.44 7.63 12.49C7.89 12.54 8.2 12.58 8.54 12.62C8.88 12.65 9.21 12.67 9.53 12.67C9.83 12.67 10.16 12.65 10.51 12.62C10.85 12.58 11.15 12.54 11.4 12.49C11.65 12.45 11.9 12.39 12.16 12.33L12.66 12.21C12.74 12.19 12.8 12.17 12.85 12.15ZM16 12.25C17.52 12.25 18.75 13.48 18.75 15C18.75 16.52 17.52 17.75 16 17.75C15.27 17.75 14.62 17.45 14.13 16.98C14.4558 16.4875 14.5735 15.8861 14.4573 15.3071C14.3412 14.7281 14.0006 14.2187 13.51 13.89C13.94 12.93 14.88 12.25 16 12.25ZM10.5 15.75C10.5 14.79 11.29 14 12.25 14C13.21 14 14 14.79 14 15.75C14 16.71 13.21 17.5 12.25 17.5C11.29 17.5 10.5 16.71 10.5 15.75Z" fill="black"/>
</svg>
