<svg width="20" height="20" viewBox="0 0 20 20" fill="none" xmlns="http://www.w3.org/2000/svg">
<path d="M10 1C17 1 19 3.91 19 7.5C19 11.09 17 14 10 14C3 14 1 11.09 1 7.5C1 3.91 3 1 10 1ZM5.5 9C6.33 9 7 8.33 7 7.5C7 6.67 6.33 6 5.5 6C4.67 6 4 6.67 4 7.5C4 8.33 4.67 9 5.5 9ZM10 9C10.83 9 11.5 8.33 11.5 7.5C11.5 6.67 10.83 6 10 6C9.17 6 8.5 6.67 8.5 7.5C8.5 8.33 9.17 9 10 9ZM14.5 9C15.33 9 16 8.33 16 7.5C16 6.67 15.33 6 14.5 6C13.67 6 13 6.67 13 7.5C13 8.33 13.67 9 14.5 9ZM6 14.5C6.83 14.5 7.5 15.17 7.5 16C7.5 16.83 6.83 17.5 6 17.5C5.17 17.5 4.5 16.83 4.5 16C4.5 15.17 5.17 14.5 6 14.5ZM3 16.5C3.55 16.5 4 16.95 4 17.5C4 18.05 3.55 18.5 3 18.5C2.45 18.5 2 18.05 2 17.5C2 16.95 2.45 16.5 3 16.5Z" fill="black"/>
</svg>
