<svg width="20" height="20" viewBox="0 0 20 20" fill="none" xmlns="http://www.w3.org/2000/svg">
<path d="M16.68 9.77C16.0453 10.406 15.2363 10.8396 14.3552 11.0158C13.4741 11.192 12.5605 11.103 11.73 10.76L6.32 17.28C5.33 18.27 3.73 18.27 2.74 17.28C1.75 16.29 1.75 14.69 2.74 13.71L9.26 8.29C8.58 6.64 8.91 4.68 10.25 3.34C11.53 2.06 13.37 1.72 14.97 2.28L12.08 5.17L14.9 7.99L17.76 5.12C18.29 6.7 17.94 8.51 16.68 9.77ZM3.81 16.21C4.21 16.6 4.85 16.6 5.24 16.21C5.64 15.81 5.64 15.17 5.24 14.78C4.85 14.38 4.21 14.38 3.81 14.78C3.6225 14.9708 3.51744 15.2275 3.51744 15.495C3.51744 15.7625 3.6225 16.0192 3.81 16.21Z" fill="black"/>
</svg>
