<svg width="20" height="20" viewBox="0 0 20 20" fill="none" xmlns="http://www.w3.org/2000/svg">
<path d="M17 3V1H2V3H17ZM17 7V5H2V7H17ZM10 11V9H2V11H10ZM17.45 9.04L11.45 10.16C11.29 10.18 11.26 10.19 11.16 10.29C11.05 10.38 11 10.51 11 10.66V15.25C10.71 15.12 10.34 15.11 10.07 15.11C9.53 15.11 9.07 15.3 8.69 15.68C8.31 16.06 8.13 16.52 8.13 17.06C8.13 17.59 8.31 18.05 8.69 18.43C9.07 18.81 9.53 19 10.07 19C10.56 19 10.99 18.84 11.36 18.52C11.73 18.2 11.95 17.81 12.01 17.33V12.38L17 11.27V14.75C16.71 14.62 16.44 14.56 16.17 14.56C15.63 14.56 15.06 14.75 14.68 15.13C14.3 15.5 14.11 15.96 14.11 16.5C14.11 17.04 14.3 17.49 14.68 17.87C15.06 18.25 15.52 18.44 16.06 18.44C16.59 18.44 17.05 18.25 17.43 17.87C17.81 17.49 18 17.04 18 16.5V9.6C18 9.44 17.95 9.3 17.84 9.19C17.7932 9.13375 17.7328 9.09043 17.6645 9.06417C17.5963 9.03791 17.5224 9.02959 17.45 9.04ZM8 15V13H2V15H8ZM6 19V17H2V19H6Z" fill="black"/>
</svg>
