<svg width="20" height="20" viewBox="0 0 20 20" fill="none" xmlns="http://www.w3.org/2000/svg">
<path d="M10 10L2.54 7.02L3 18H1L1.48 6.59L0 6L10 2L20 6L10 10ZM10 5C9.45 5 9 5.22 9 5.5C9 5.78 9.45 6 10 6C10.55 6 11 5.78 11 5.5C11 5.22 10.55 5 10 5ZM10 11L15.57 8.77C16.28 9.71 16.77 10.84 16.93 12.07C16.63 12.03 16.32 12 16 12C13.45 12 11.22 13.37 10 15.41C9.38075 14.3708 8.50224 13.5101 7.45048 12.9124C6.39872 12.3146 5.20976 12.0002 4 12C3.68 12 3.37 12.03 3.07 12.07C3.23 10.84 3.72 9.71 4.43 8.77L10 11Z" fill="black"/>
</svg>
