<svg width="20" height="20" viewBox="0 0 20 20" fill="none" xmlns="http://www.w3.org/2000/svg">
<path d="M4 15V12H2V2H14V5H16V8H18V18H6V15H4ZM11 3C9.9 3 9 3.9 9 5H13C13 4.46957 12.7893 3.96086 12.4142 3.58579C12.0391 3.21071 11.5304 3 11 3ZM4 11V6H3V11H4ZM11 8H15C15 7.46957 14.7893 6.96086 14.4142 6.58579C14.0391 6.21071 13.5304 6 13 6C12.4696 6 11.9609 6.21071 11.5858 6.58579C11.2107 6.96086 11 7.46957 11 8ZM6 14V9H5V14H6ZM15 13C15.2663 13.006 15.5312 12.9588 15.779 12.861C16.0269 12.7633 16.2527 12.617 16.4432 12.4308C16.6337 12.2446 16.7851 12.0222 16.8885 11.7767C16.9919 11.5311 17.0451 11.2674 17.0452 11.001C17.0453 10.7346 16.9921 10.4709 16.8889 10.2253C16.7856 9.97971 16.6343 9.75723 16.4439 9.57093C16.2535 9.38462 16.0277 9.23823 15.78 9.14036C15.5322 9.04249 15.2673 8.99511 15.001 9.001C14.4784 9.01256 13.9812 9.22822 13.6156 9.60184C13.2501 9.97545 13.0453 10.4773 13.0452 11C13.0451 11.5227 13.2496 12.0247 13.6149 12.3985C13.9803 12.7723 14.4774 12.9882 15 13ZM17 17V15C12 15 12 12 7 12V17H17Z" fill="black"/>
</svg>
