<svg width="20" height="20" viewBox="0 0 20 20" fill="none" xmlns="http://www.w3.org/2000/svg">
<path d="M9.99997 2.16C11.5506 2.16 13.0664 2.61981 14.3556 3.48128C15.6449 4.34275 16.6498 5.56719 17.2432 6.99977C17.8366 8.43234 17.9918 10.0087 17.6893 11.5295C17.3868 13.0503 16.6401 14.4473 15.5437 15.5437C14.4472 16.6402 13.0503 17.3869 11.5295 17.6894C10.0087 17.9919 8.43231 17.8366 6.99973 17.2432C5.56716 16.6498 4.34272 15.645 3.48125 14.3557C2.61978 13.0664 2.15997 11.5506 2.15997 10C2.15997 5.67 5.70997 2.16 9.99997 2.16ZM12 13.88V6.12L6.17997 9.97L12 13.88Z" fill="black"/>
</svg>
