<svg width="20" height="20" viewBox="0 0 20 20" fill="none" xmlns="http://www.w3.org/2000/svg">
<path d="M13.11 4.36L9.87002 7.6L8.00002 5.73L11.24 2.49C11.59 2.15 12.29 2.29 12.8 2.81C13.32 3.32 13.46 4.02 13.11 4.36ZM5.11002 6.13L6.02002 5.01L15.03 14.02L13.84 14.86C13.13 15.57 11.21 16.02 10.02 16.02H6.14002L4.90002 17.26C4.31002 17.85 3.36002 17.85 2.78002 17.26C2.63973 17.1214 2.52835 16.9564 2.45232 16.7744C2.3763 16.5924 2.33716 16.3972 2.33716 16.2C2.33716 16.0028 2.3763 15.8076 2.45232 15.6256C2.52835 15.4436 2.63973 15.2786 2.78002 15.14L4.02002 13.9V10.02C4.02002 8.89 4.42002 6.83 5.11002 6.13ZM12.37 10.1L15.61 6.86C15.95 6.51 16.65 6.65 17.16 7.17C17.68 7.68 17.82 8.38 17.47 8.72L14.23 11.97L12.37 10.1Z" fill="black"/>
</svg>
