<svg width="20" height="20" viewBox="0 0 20 20" fill="none" xmlns="http://www.w3.org/2000/svg">
<path d="M17 4H3C1.9 4 1 4.9 1 6V14C1 15.1 1.9 16 3 16H17C18.1 16 19 15.1 19 14V6C19 4.9 18.1 4 17 4ZM8.6 9L8.2 9.3C7.8 9.7 7.7 10.4 8 10.9L7.2 11.7L6.1 10.6L4.8 11.9C4.6 12.1 3.2 13.2 3 13C2.8 12.8 3.9 11.4 4.1 11.2L5.4 9.9L4.3 8.8L5.1 8C5.6 8.3 6.3 8.3 6.7 7.8L7 7.5C7.5 7 7.5 6.3 7.2 5.8L8 5L11 7.9L10.2 8.7C9.7 8.5 9 8.5 8.6 9ZM14 10.5L12.5 12L14 13.5V15L11 12L14 9V10.5ZM15 15V13.5L16.5 12L15 10.5V9L18 12L15 15Z" fill="black"/>
</svg>
