<svg width="20" height="20" viewBox="0 0 20 20" fill="none" xmlns="http://www.w3.org/2000/svg">
<path d="M13.5 7H6.5C5.67 7 5 6.33 5 5.5C5 4.67 5.67 4 6.5 4H8.09C8.03421 3.83902 8.00385 3.67033 8 3.5C8 2.67 8.67 2 9.5 2H10.5C11.33 2 12 2.67 12 3.5C12 3.68 11.96 3.84 11.91 4H13.5C14.33 4 15 4.67 15 5.5C15 6.33 14.33 7 13.5 7ZM4 8H16C16.55 8 17 8.45 17 9C17 9.55 16.55 10 16 10H4C3.45 10 3 9.55 3 9C3 8.45 3.45 8 4 8ZM5 11H15C15.55 11 16 11.45 16 12C16 12.55 15.55 13 15 13H5C4.45 13 4 12.55 4 12C4 11.45 4.45 11 5 11ZM7 14H13C13.55 14 14 14.45 14 15C14 15.55 13.55 16 13 16H11.91C11.96 16.16 12 16.32 12 16.5C12 17.33 11.33 18 10.5 18H9.5C8.67 18 8 17.33 8 16.5C8 16.32 8.04 16.16 8.09 16H7C6.45 16 6 15.55 6 15C6 14.45 6.45 14 7 14Z" fill="black"/>
</svg>
