<svg width="20" height="20" viewBox="0 0 20 20" fill="none" xmlns="http://www.w3.org/2000/svg">
<path d="M9.49001 13.22C9.49001 12.48 9.29001 11.84 8.88001 11.32C8.26001 10.54 7.05001 10.44 6.35001 10.6C6.06001 8.95 7.46001 6.85 9.27001 5.95L7.88001 4C5.15001 5.3 2.46001 8.28 2.92001 12.05C3.21001 14.43 4.59001 16 6.54001 16C7.39001 16 8.10001 15.75 8.66001 15.25C9.22001 14.75 9.49001 14.07 9.49001 13.22ZM17.54 13.22C17.54 12.48 17.34 11.84 16.93 11.32C16.3 10.54 15.1 10.44 14.4 10.6C14.11 8.95 15.51 6.85 17.32 5.95L15.93 4C13.2 5.3 10.52 8.28 10.98 12.05C11.27 14.43 12.64 16 14.59 16C15.44 16 16.15 15.75 16.71 15.25C17.27 14.75 17.54 14.07 17.54 13.22Z" fill="black"/>
</svg>
