<svg width="20" height="20" viewBox="0 0 20 20" fill="none" xmlns="http://www.w3.org/2000/svg">
<path d="M20 5.38L18.99 8.2V8.19C17.95 7.82 16.8 8.37 16.42 9.41C16.05 10.45 16.59 11.6 17.64 11.97V11.98L16.63 14.8L1.57 9.42L2.56 6.63C3.6 7.01 4.75 6.46 5.12 5.42C5.49 4.38 4.95 3.24 3.91 2.87L4.93 0L20 5.38ZM14.55 8.75C15.29 6.67 14.21 4.38 12.13 3.63C10.05 2.89 7.76 3.98 7.02 6.05C6.28 8.13 7.36 10.43 9.44 11.17C10.4387 11.5234 11.5366 11.4673 12.4941 11.0139C13.4515 10.5604 14.1906 9.74656 14.55 8.75ZM11.99 4.01C12.88 4.33 13.56 4.95 13.96 5.72C13.95 5.71 13.94 5.71 13.92 5.7C13.59 5.58 13.25 5.79 13.14 6.1C13.04 6.38 13.11 6.67 13.19 7.01C13.23 7.28 13.28 7.63 13.13 8.05C13.03 8.34 12.8 8.63 12.48 9.05L11.74 10.06L11.82 5.98L12.22 6.09C12.41 6.13 12.48 5.85 12.3 5.8C12.3 5.8 11.73 5.65 11.38 5.52C11.04 5.4 10.5 5.16 10.5 5.16C10.32 5.08 10.2 5.35 10.38 5.43C10.38 5.43 10.54 5.51 10.72 5.59L10.73 7.22L9.2 9.18L9.28 5.07C9.48 5.13 9.68 5.18 9.68 5.18C9.87 5.22 9.94 4.95 9.75 4.89C9.75 4.89 9.19 4.74 8.84 4.61C8.77 4.59 8.7 4.56 8.62 4.53C9.55 3.83 10.81 3.59 11.99 4.01ZM7.4 6.19C7.57 5.7 7.84 5.27 8.18 4.92L8.22 9.92C7.28 8.97 6.92 7.53 7.4 6.19ZM11.44 10.94L13.54 8.31C13.91 7.9 14.11 7.54 14.23 7.19C14.28 7.07 14.31 6.95 14.34 6.84C14.43 7.41 14.38 8.02 14.17 8.61C13.9582 9.20303 13.5947 9.7302 13.1157 10.139C12.6367 10.5478 12.0589 10.824 11.44 10.94ZM10.74 7.72L10.76 10.94C10.76 10.96 10.76 10.98 10.77 11C10.0141 11.001 9.27798 10.7591 8.67 10.31L10.74 7.72ZM11.98 13.8L14.08 14.55C14.32 15.39 15.08 16 15.99 16H16V19H0V16.04C0.530433 16.04 1.03914 15.8293 1.41421 15.4542C1.78929 15.0791 2 14.5704 2 14.04C2 13.5096 1.78929 13.0009 1.41421 12.6258C1.03914 12.2507 0.530433 12.04 0 12.04L0 9H1.05L0.77 9.8L5.05 11.32C4.37623 12.05 4.00146 13.0066 4 14C4 16.21 5.79 18 8 18C10.21 18 12 16.21 12 14C12 13.93 11.98 13.87 11.98 13.8ZM5.45 11.47L6.93 12C6.79 12.04 6.78 12.27 6.96 12.28C6.96 12.28 7.14 12.3 7.33 12.31L7.89 13.85L7.11 16.21L5.8 12.31C6.01 12.3 6.21 12.28 6.21 12.28C6.4 12.26 6.38 11.97 6.19 11.98C6.19 11.98 5.6 12.03 5.23 12.03C5.16 12.03 5.08 12.03 5 12.02C5.13 11.82 5.28 11.64 5.45 11.47ZM4.4 14C4.4 13.48 4.52 12.98 4.72 12.54L6.43 17.24C5.82267 16.9436 5.31056 16.4829 4.95175 15.9102C4.59294 15.3376 4.4018 14.6758 4.4 14ZM8.59 12.59L10.31 13.21C10.38 13.38 10.43 13.58 10.43 13.82C10.43 14.13 10.31 14.48 10.15 14.98L9.8 16.18L8.59 12.59ZM11.6 14C11.6 15.33 10.88 16.49 9.81 17.11L10.91 13.93C10.97 13.76 11.01 13.62 11.05 13.47L11.57 13.66C11.59 13.77 11.6 13.88 11.6 14ZM6.98 17.45L8.06 14.31L9.17 17.34C9.18 17.36 9.18 17.38 9.19 17.39C8.82 17.52 8.42 17.6 8 17.6C7.65 17.6 7.31 17.54 6.98 17.45Z" fill="black"/>
</svg>
