<svg width="20" height="20" viewBox="0 0 20 20" fill="none" xmlns="http://www.w3.org/2000/svg">
<path d="M10 2C5.6 2 2 5.6 2 10C2 14.4 5.6 18 10 18C14.4 18 18 14.4 18 10C18 5.6 14.4 2 10 2ZM13.7 13.5C13.6 13.7 13.2 13.8 13 13.7C10.9 12.5 8.3 12.2 6 12.9C5.7 12.9 5.5 12.8 5.4 12.5C5.4 12.3 5.5 12 5.8 11.9C8.4 11.1 11.2 11.5 13.6 12.8C13.7 13 13.8 13.3 13.7 13.5ZM14.7 11.4C14.6 11.4 14.6 11.4 14.7 11.4C14.5 11.7 14.1 11.8 13.8 11.6C11.4 10.2 8.5 9.9 5.8 10.7C5.5 10.8 5.1 10.6 5 10.3C4.9 9.9 5.1 9.6 5.4 9.4C8.4 8.5 11.7 8.9 14.4 10.5C14.7 10.7 14.8 11.1 14.7 11.4ZM14.7 9.1C12.1 7.6 7.9 7.4 5.4 8.2C5 8.3 4.6 8.1 4.5 7.7C4.4 7.3 4.6 6.9 5 6.7C7.8 5.9 12.5 6 15.5 7.8C15.9 8 16 8.5 15.8 8.8C15.5 9.2 15.1 9.3 14.7 9.1Z" fill="black"/>
</svg>
