<svg width="20" height="20" viewBox="0 0 20 20" fill="none" xmlns="http://www.w3.org/2000/svg">
<path d="M10 5.40001C11.27 5.40001 12.24 5.76001 12.91 6.48001C13.57 7.19001 13.91 8.24001 13.91 9.61001C13.91 10.89 13.68 11.98 13.22 12.88C12.75 13.77 11.95 14.4 11 15V17H17V15H13.31C14.23 14.36 14.93 13.66 15.43 12.66C15.92 11.65 16.17 10.53 16.17 9.31001C16.17 7.53001 15.62 6.12001 14.52 5.09001C13.42 4.06001 11.92 3.54001 10 3.54001C8.08 3.54001 6.57 4.07001 5.48 5.11001C4.38 6.15001 3.83 7.55001 3.83 9.31001C3.83 10.52 4.07 11.62 4.56 12.64C5.04 13.65 5.75 14.35 6.66 15H3V17H9V15C8.02 14.36 7.2 13.72 6.76 12.83C6.31 11.94 6.09 10.87 6.09 9.61001C6.09 8.24001 6.42 7.20001 7.09 6.48001C7.75 5.76001 8.72 5.40001 10 5.40001Z" fill="black"/>
</svg>
