<svg width="20" height="20" viewBox="0 0 20 20" fill="none" xmlns="http://www.w3.org/2000/svg">
<path d="M4.5 6.2C3.7 7.3 3.3 8.6 3.3 10C3.3 11 3.5 11.9 3.9 12.8L4.9 8.2C5.2 6.5 5.3 6.2 4.5 6.2ZM8.5 12.6C8.8 11.3 8.5 10.3 7.4 10.3C6.6 10.3 5.8 10.9 5.6 11.8L5.3 13.5C5 14.5 5.6 15 6.3 15C7.5 15 8.2 13.9 8.5 12.6ZM10 2C5.6 2 2 5.6 2 10C2 14.4 5.6 18 10 18C14.4 18 18 14.4 18 10C18 5.6 14.4 2 10 2ZM10 17.5C7.9 17.5 6 16.7 4.7 15.3C4.4 14.9 4 14.5 3.7 14.1C3 12.9 2.5 11.5 2.5 10C2.5 5.9 5.9 2.5 10 2.5C14.1 2.5 17.5 5.9 17.5 10C17.5 14.1 14.1 17.5 10 17.5ZM13.8 12.6C14.1 11.3 13.8 10.3 12.7 10.3C11.9 10.3 11.1 10.9 10.9 11.8L10.5 13.5C10.3 14.6 10.9 15.1 11.6 15.1C12.7 15 13.5 13.9 13.8 12.6ZM10 3.3C8 3.3 6.1 4.2 4.9 5.6C5.5 5.5 6.3 5.4 6.7 5.3C6.9 5.3 6.9 5.4 6.9 5.5C6.9 5.7 5.9 10.3 5.9 10.3C6.4 10 7.1 9.6 7.7 9.6C8.6 9.6 9.2 10 9.6 10.5L10.1 8.1C10.5 6.5 10.5 6.2 9.7 6.2C9.3 6.2 9.3 5.7 9.7 5.6C10.3 5.5 11.5 5.4 12 5.3C12.2 5.3 12.2 5.4 12.2 5.5L11.2 10.3C11.7 9.9 12.4 9.6 13.1 9.6C14.8 9.6 15.6 10.9 15.2 12.6C14.9 14.3 13.2 15.6 11.4 15.6C10.1 15.6 9.3 14.9 9.1 14.2C8.4 15 7.4 15.5 6.3 15.6C7.4 16.3 8.7 16.7 10 16.7C11.777 16.7 13.4811 15.9941 14.7376 14.7376C15.9941 13.4811 16.7 11.777 16.7 10C16.7 8.22305 15.9941 6.51888 14.7376 5.26238C13.4811 4.00589 11.777 3.3 10 3.3Z" fill="black"/>
</svg>
