<svg width="20" height="20" viewBox="0 0 20 20" fill="none" xmlns="http://www.w3.org/2000/svg">
<path d="M10.44 1.66C9.85 1.08 8.9 1.08 8.32 1.66L2.66 7.32C2.08 7.9 2.08 8.85 2.66 9.44C3.26 10.04 4.22 10 4.78 9.44L10.44 3.78C10.7209 3.49875 10.8787 3.1175 10.8787 2.72C10.8787 2.3225 10.7209 1.94125 10.44 1.66ZM13.27 4.49C13.1314 4.34971 12.9664 4.23832 12.7844 4.1623C12.6024 4.08628 12.4072 4.04714 12.21 4.04714C12.0128 4.04714 11.8176 4.08628 11.6356 4.1623C11.4536 4.23832 11.2886 4.34971 11.15 4.49L5.49 10.15C5.34971 10.2886 5.23833 10.4536 5.1623 10.6356C5.08628 10.8176 5.04714 11.0128 5.04714 11.21C5.04714 11.4072 5.08628 11.6024 5.1623 11.7844C5.23833 11.9664 5.34971 12.1314 5.49 12.27C6.09 12.87 7.05 12.82 7.61 12.27L13.27 6.61C13.85 6.03 13.85 5.08 13.27 4.49ZM14.33 11.21L18.51 15.39C19.1 15.97 19.1 16.92 18.51 17.51C17.92 18.1 16.97 18.1 16.39 17.51L12.21 13.33L10.44 15.1C9.85 15.68 8.9 15.68 8.32 15.1C7.73 14.51 7.73 13.56 8.32 12.97L13.98 7.32C14.1186 7.17971 14.2836 7.06832 14.4656 6.9923C14.6476 6.91628 14.8428 6.87714 15.04 6.87714C15.2372 6.87714 15.4324 6.91628 15.6144 6.9923C15.7964 7.06832 15.9614 7.17971 16.1 7.32C16.68 7.9 16.68 8.85 16.1 9.44L14.33 11.21ZM5 15C5 13.41 3.34 11 3.34 11C3.34 11 2 13.78 2 15C2 16.22 2.6 17 3.34 17H3.66C4.4 17 5 16.59 5 15Z" fill="black"/>
</svg>
