<svg width="20" height="20" viewBox="0 0 20 20" fill="none" xmlns="http://www.w3.org/2000/svg">
<path d="M19 10C19 8.81804 18.7671 7.64766 18.3147 6.5557C17.8623 5.46373 17.1993 4.47156 16.3635 3.63583C15.5277 2.8001 14.5354 2.13719 13.4434 1.68493C12.3514 1.23267 11.181 0.999934 9.99902 1C8.81706 1.00007 7.64668 1.23294 6.55472 1.68531C5.46275 2.13769 4.47058 2.80072 3.63486 3.63654C2.79913 4.47236 2.13621 5.4646 1.68395 6.55662C1.2317 7.64864 0.998958 8.81904 0.999023 10.001C0.999156 12.3881 1.94755 14.6773 3.63556 16.3652C5.32358 18.053 7.61294 19.0011 10 19.001C12.3871 19.0009 14.6764 18.0525 16.3642 16.3645C18.052 14.6764 19.0002 12.3871 19 10ZM10 2.6C10.83 2.6 11.5 3.27 11.5 4.1C11.5 4.93 10.83 5.61 10 5.61C9.18002 5.61 8.50002 4.93 8.50002 4.1C8.50002 3.27 9.18002 2.6 10 2.6ZM3.40002 7.36C3.40002 6.71 10 6.6 10 6.6C10 6.6 16.6 6.71 16.6 7.36C16.6 8.01 12.13 8.76 12.13 8.76C12.13 8.76 13.82 16.9 13.19 17.14C12.57 17.38 10 11.95 10 11.95C10 11.95 7.44002 17.38 6.82002 17.14C6.19002 16.9 7.88002 8.76 7.88002 8.76C7.88002 8.76 3.40002 8.01 3.40002 7.36Z" fill="black"/>
</svg>
