<svg width="20" height="20" viewBox="0 0 20 20" fill="none" xmlns="http://www.w3.org/2000/svg">
<path d="M18.3 9.49999C15 4.89999 8.50002 3.79999 3.90002 7.19999C2.70002 8.09999 1.70002 9.29999 0.900024 10.6C1.10002 11 1.40002 11.4 1.70002 11.8C5.00002 16.4 11.3 17.4 15.9 14.2C16.8 13.5 17.6 12.8 18.3 11.8C18.6 11.4 18.8 11 19.1 10.6C18.8 10.2 18.6 9.79999 18.3 9.49999ZM10.1 7.19999C10.6 6.69999 11.4 6.69999 11.9 7.19999C12.4 7.69999 12.4 8.49999 11.9 8.99999C11.4 9.49999 10.6 9.49999 10.1 8.99999C9.60003 8.49999 9.60003 7.69999 10.1 7.19999ZM10 14.9C6.90002 14.9 4.00002 13.3 2.30002 10.7C3.50002 8.99999 5.10002 7.79999 7.00002 7.19999C6.30002 7.99999 6.00002 8.89999 6.00002 9.89999C6.00002 12.1 7.70002 14 10 14C12.2 14 14.1 12.3 14.1 9.99999V9.89999C14.1 8.89999 13.7 7.89999 13 7.19999C14.9 7.79999 16.5 8.99999 17.7 10.7C16 13.3 13.1 14.9 10 14.9Z" fill="black"/>
</svg>
