<svg width="20" height="20" viewBox="0 0 20 20" fill="none" xmlns="http://www.w3.org/2000/svg">
<path d="M15.9 5.5C15.3 4.5 14.2 4 13 4H6.99997C5.79997 4 4.69997 4.5 4.09997 5.5C1.79997 9 1.29997 14.3 2.89997 15.4C4.49997 16.5 8.09997 11.7 9.99997 11.7C11.9 11.7 15.4 16.5 17.1 15.4C18.7 14.3 18.2 9 15.9 5.5ZM7.99997 9H6.99997V10H5.99997V9H4.99997V8H5.99997V7H6.99997V8H7.99997V9ZM13.4 9.5C13.4 10 13 10.4 12.5 10.4C12 10.4 11.6 10 11.6 9.5C11.6 9 12 8.6 12.5 8.6C13 8.6 13.4 9 13.4 9.5ZM15.3 7.5C15.3 8 14.9 8.4 14.4 8.4C13.9 8.4 13.5 8 13.5 7.5C13.5 7 13.9 6.6 14.4 6.6C14.9 6.6 15.3 7 15.3 7.5Z" fill="black"/>
</svg>
