<svg width="20" height="20" viewBox="0 0 20 20" fill="none" xmlns="http://www.w3.org/2000/svg">
<path d="M14 15C14.8284 15 15.5 14.3284 15.5 13.5C15.5 12.6716 14.8284 12 14 12C13.1716 12 12.5 12.6716 12.5 13.5C12.5 14.3284 13.1716 15 14 15Z" fill="black"/>
<path d="M16.1 9.00001H14.5C13.9 6.30001 11.3 4.50001 8.6 5.10001C6.6 5.50001 5 7.00001 4.6 9.00001H3.9C2.9 9.00001 2 9.90001 2 10.9V12.2C2 12.9 2.6 13.5 3.3 13.5H3.6C3.6 12.2 4.7 11.1 6 11.1C7.3 11.1 8.4 12.2 8.4 13.5H11.6C11.6 12.2 12.7 11.1 14 11.1C15.3 11.1 16.4 12.2 16.4 13.5H16.7C17.4 13.5 18 12.9 18 12.2V11C18 9.90001 17.1 9.00001 16.1 9.00001ZM6.2 9.00001C6.7 7.10001 8.7 6.10001 10.5 6.60001C11.6 6.90001 12.5 7.80001 12.9 9.00001H6.2ZM6 12C5.2 12 4.5 12.7 4.5 13.5C4.5 14.3 5.2 15 6 15C6.8 15 7.5 14.3 7.5 13.5C7.5 12.7 6.8 12 6 12Z" fill="black"/>
</svg>
