<svg width="20" height="20" viewBox="0 0 20 20" fill="none" xmlns="http://www.w3.org/2000/svg">
<path d="M10 3C12.09 3 13.97 3.92 15.25 5.38L13.54 7.33C13.1281 6.77945 12.5939 6.3321 11.9796 6.02321C11.3653 5.71432 10.6876 5.55233 10 5.55C7.89 5.55 6.13 7.03 5.68 9H8L4.5 13L1 9H3.08C3.57 5.61 6.47 3 10 3ZM10 17.04C7.9 17.04 6.03 16.12 4.75 14.66L6.46 12.71C6.87194 13.2605 7.40611 13.7079 8.02043 14.0168C8.63474 14.3257 9.3124 14.4877 10 14.49C12.11 14.49 13.87 13.01 14.32 11.04H12L15.5 7.04L19 11.04H16.92C16.43 14.43 13.52 17.04 10 17.04Z" fill="black"/>
</svg>
