<svg width="20" height="20" viewBox="0 0 20 20" fill="none" xmlns="http://www.w3.org/2000/svg">
<path d="M17.74 2.76C18.5471 3.5699 19.0002 4.66665 19.0002 5.81C19.0002 6.95335 18.5471 8.0501 17.74 8.86L16.21 10.38C15.09 11.5 13.51 11.85 12.07 11.47L14.69 8.86L15.45 8.09L16.21 7.33C17.05 6.49 17.05 5.13 16.21 4.29C16.0117 4.08803 15.7752 3.92759 15.5142 3.81807C15.2532 3.70856 14.973 3.65215 14.69 3.65215C14.407 3.65215 14.1268 3.70856 13.8658 3.81807C13.6048 3.92759 13.3683 4.08803 13.17 4.29L12.4 5.05L9.02001 8.43C8.65001 6.99 9.00001 5.41 10.12 4.29L11.64 2.76C12.4499 1.95296 13.5467 1.49981 14.69 1.49981C15.8334 1.49981 16.9301 1.95296 17.74 2.76ZM8.59001 13.43L13.93 8.09C14.35 7.67 14.35 6.99 13.93 6.57C13.49 6.14 12.8 6.18 12.4 6.57L7.07001 11.91C6.65001 12.33 6.65001 13.01 7.07001 13.43C7.51001 13.86 8.20001 13.82 8.59001 13.43ZM7.83001 15.72L11.97 11.57C12.35 13.01 12 14.59 10.88 15.71L9.36001 17.24C8.55011 18.047 7.45336 18.5002 6.31001 18.5002C5.16666 18.5002 4.06991 18.047 3.26001 17.24C2.45297 16.4301 1.99982 15.3334 1.99982 14.19C1.99982 13.0466 2.45297 11.9499 3.26001 11.14L4.79001 9.62C5.91001 8.5 7.49001 8.15 8.93001 8.52L4.79001 12.67C3.94001 13.51 3.94001 14.87 4.79001 15.72C5.63001 16.56 6.99001 16.56 7.83001 15.72Z" fill="black"/>
</svg>
