<svg width="20" height="20" viewBox="0 0 20 20" fill="none" xmlns="http://www.w3.org/2000/svg">
<path d="M17.05 2.70003C18.98 4.64003 18.98 7.83003 17.05 9.77003L10 16.84C8.12 18.73 5.09 18.77 3.14 16.99C3.08 16.94 3.01 16.9 2.95 16.84C1.02 14.9 1.02 11.72 2.95 9.77003L7.89 4.82003C8.8 3.90003 10.17 3.72003 11.28 4.24003C11.58 4.39003 11.87 4.57003 12.11 4.82003C12.6718 5.38253 12.9874 6.14503 12.9874 6.94003C12.9874 7.73503 12.6718 8.49753 12.11 9.06003L7.18 14.01C6.99302 14.197 6.73943 14.3021 6.475 14.3021C6.21058 14.3021 5.95698 14.197 5.77 14.01C5.58302 13.8231 5.47798 13.5695 5.47798 13.305C5.47798 13.0406 5.58302 12.787 5.77 12.6L10.7 7.65003C10.7927 7.55752 10.8663 7.44763 10.9164 7.32665C10.9666 7.20568 10.9924 7.076 10.9924 6.94503C10.9924 6.81406 10.9666 6.68438 10.9164 6.5634C10.8663 6.44243 10.7927 6.33254 10.7 6.24003C10.6085 6.14739 10.4995 6.07384 10.3793 6.02364C10.2592 5.97344 10.1302 5.94759 10 5.94759C9.86978 5.94759 9.74085 5.97344 9.62069 6.02364C9.50053 6.07384 9.39153 6.14739 9.3 6.24003L4.36 11.19C3.45 12.11 3.26 13.48 3.79 14.59C3.93 14.89 4.11 15.18 4.36 15.43C4.61 15.68 4.9 15.86 5.2 16C6.31 16.53 7.67 16.35 8.59 15.43L15.64 8.36003C16.1976 7.79328 16.5101 7.03008 16.5101 6.23503C16.5101 5.43998 16.1976 4.67678 15.64 4.11003C15.08 3.56003 14.36 3.28003 13.64 3.25003C13.4888 3.26773 13.3356 3.25278 13.1907 3.2062C13.0458 3.15963 12.9126 3.0825 12.8 2.98003C12.41 2.58003 12.42 1.93003 12.82 1.53003C12.98 1.37003 13.18 1.29003 13.38 1.25003C13.52 1.23003 13.65 1.24003 13.78 1.27003C14.97 1.33003 16.14 1.79003 17.05 2.70003Z" fill="black"/>
</svg>
