<svg width="20" height="20" viewBox="0 0 20 20" fill="none" xmlns="http://www.w3.org/2000/svg">
<path d="M12 2L16 6V18H4V2H12ZM12 6H15L12 3V6ZM13 13.26V8.09C13.0006 8.03607 12.9903 7.98258 12.9696 7.93274C12.949 7.8829 12.9185 7.83775 12.88 7.8C12.847 7.76203 12.805 7.73297 12.7578 7.71549C12.7106 7.69802 12.6598 7.69269 12.61 7.7C12.61 7.7 8.64 8.41 8.36 8.48C8.07 8.54 8 8.8 8 9V12.37C7.8 12.28 7.58 12.3 7.4 12.3C7.02 12.3 6.7 12.43 6.44 12.69C6.18 12.96 6.04 13.27 6.04 13.65C6.04 14.02 6.18 14.34 6.44 14.6C6.7 14.87 7.02 15 7.4 15C7.74 15 8.1 14.96 8.36 14.74C8.62 14.51 9 14.09 9 13.62V10.3L12 9.7V12C11.33 11.8 10.83 12.04 10.56 12.31C10.3 12.57 10.17 12.89 10.17 13.26C10.17 13.64 10.3 13.95 10.56 14.22C10.83 14.48 11.27 14.61 11.64 14.61C12.02 14.61 12.34 14.48 12.6 14.22C12.86 13.95 13 13.64 13 13.26Z" fill="black"/>
</svg>
