<svg width="20" height="20" viewBox="0 0 20 20" fill="none" xmlns="http://www.w3.org/2000/svg">
<path d="M18 13H19C19.55 13 20 13.45 20 14.01V16.99C20 17.55 19.55 18 19 18H15C14.45 18 14 17.55 14 16.99V14.01C14 13.45 14.45 13 15 13H16V11H11V13H12C12.55 13 13 13.45 13 14.01V16.99C13 17.55 12.55 18 12 18H8C7.45 18 7 17.55 7 16.99V14.01C7 13.45 7.45 13 8 13H9V11H4V13H5C5.55 13 6 13.45 6 14.01V16.99C6 17.55 5.55 18 5 18H1C0.45 18 0 17.55 0 16.99V14.01C0 13.45 0.45 13 1 13H2V11C2 9.9 2.9 9 4 9H9V7H8C7.45 7 7 6.55 7 5.99V3.01C7 2.45 7.45 2 8 2H12C12.55 2 13 2.45 13 3.01V5.99C13 6.55 12.55 7 12 7H11V9H16C17.1 9 18 9.9 18 11V13Z" fill="black"/>
</svg>
