<svg width="20" height="20" viewBox="0 0 20 20" fill="none" xmlns="http://www.w3.org/2000/svg">
<path d="M17.74 2.26001C18.5471 3.06991 19.0002 4.16666 19.0002 5.31001C19.0002 6.45336 18.5471 7.55011 17.74 8.36001L16.21 9.88001C15.89 10.21 15.52 10.46 15.13 10.65L13 10L14.69 8.36001L15.45 7.59001L16.21 6.83001C17.05 5.99001 17.05 4.63001 16.21 3.79001C16.0117 3.58803 15.7752 3.4276 15.5142 3.31808C15.2532 3.20856 14.973 3.15216 14.69 3.15216C14.407 3.15216 14.1268 3.20856 13.8658 3.31808C13.6048 3.4276 13.3683 3.58803 13.17 3.79001L12.4 4.55001L11.64 5.31001L10 7.00001L9.35001 4.86001C9.54001 4.48001 9.79001 4.11001 10.12 3.79001L11.64 2.26001C12.4499 1.45297 13.5467 0.999817 14.69 0.999817C15.8334 0.999817 16.9301 1.45297 17.74 2.26001ZM2.00001 4.00001L10 10L4.00001 2.00001L2.00001 4.00001ZM6.00001 2.00001L10 10L8.00001 2.00001H6.00001ZM2.00001 6.00001L10 10L2.00001 8.00001V6.00001ZM9.36001 13.69L10 13L10.74 15.35L9.36001 16.74C8.55011 17.5471 7.45336 18.0002 6.31001 18.0002C5.16666 18.0002 4.06991 17.5471 3.26001 16.74C2.45297 15.9301 1.99982 14.8334 1.99982 13.69C1.99982 12.5467 2.45297 11.4499 3.26001 10.64L4.65001 9.26001L7.00001 10L6.31001 10.64L4.79001 12.17C3.94001 13.01 3.94001 14.37 4.79001 15.21C5.63001 16.06 6.99001 16.06 7.83001 15.21L9.36001 13.69ZM18 16L10 10L16 18L18 16ZM14 18L10 10L12 18H14ZM18 14L10 10L18 12V14Z" fill="black"/>
</svg>
