<svg width="20" height="20" viewBox="0 0 20 20" fill="none" xmlns="http://www.w3.org/2000/svg">
<path d="M12.14 4.17998C13.0311 5.07218 13.5889 6.24332 13.7199 7.4975C13.851 8.75167 13.5474 10.0128 12.86 11.07C12.98 11.17 13.08 11.28 13.22 11.38C13.42 11.54 13.69 11.74 14.03 11.97C14.37 12.21 14.59 12.36 14.69 12.44C15.11 12.75 15.42 13.01 15.63 13.22C15.95 13.54 16.23 13.87 16.47 14.22C16.72 14.57 16.91 14.91 17.06 15.26C17.2 15.61 17.27 15.94 17.24 16.26C17.22 16.58 17.1 16.85 16.88 17.07C16.66 17.29 16.39 17.41 16.07 17.43C15.76 17.45 15.42 17.39 15.08 17.24C14.73 17.1 14.38 16.9 14.04 16.65C13.69 16.41 13.36 16.13 13.04 15.81C12.83 15.6 12.57 15.29 12.27 14.88C12.17 14.75 12.02 14.53 11.8 14.22C11.58 13.9 11.4 13.65 11.24 13.44C11.08 13.24 10.95 13.09 10.8 12.94C9.76205 13.4835 8.57772 13.6815 7.41942 13.5052C6.26112 13.329 5.18931 12.7876 4.36 11.96C2.22 9.80998 2.22 6.31998 4.36 4.17998C4.87063 3.66874 5.47701 3.26317 6.14449 2.98646C6.81197 2.70975 7.52744 2.56732 8.25 2.56732C8.97257 2.56732 9.68804 2.70975 10.3555 2.98646C11.023 3.26317 11.6294 3.66874 12.14 4.17998ZM10.73 10.54C11.3833 9.88191 11.7499 8.99225 11.7499 8.06498C11.7499 7.13771 11.3833 6.24804 10.73 5.58998C10.4053 5.26434 10.0196 5.00597 9.59488 4.82968C9.17017 4.65339 8.71485 4.56265 8.255 4.56265C7.79516 4.56265 7.33984 4.65339 6.91513 4.82968C6.49042 5.00597 6.10468 5.26434 5.78 5.58998C5.45437 5.91465 5.196 6.3004 5.01971 6.7251C4.84342 7.14981 4.75268 7.60513 4.75268 8.06498C4.75268 8.52482 4.84342 8.98014 5.01971 9.40485C5.196 9.82956 5.45437 10.2153 5.78 10.54C6.10468 10.8656 6.49042 11.124 6.91513 11.3003C7.33984 11.4766 7.79516 11.5673 8.255 11.5673C8.71485 11.5673 9.17017 11.4766 9.59488 11.3003C10.0196 11.124 10.4053 10.8656 10.73 10.54Z" fill="black"/>
</svg>
